<svg width="1121" height="818" xmlns="http://www.w3.org/2000/svg" xmlns:xlink="http://www.w3.org/1999/xlink" xml:space="preserve" overflow="hidden"><defs><clipPath id="clip0"><rect x="1527" y="938" width="1121" height="818"/></clipPath></defs><g clip-path="url(#clip0)" transform="translate(-1527 -938)"><path d="M0 0 213.547 75.6661" stroke="#CC3300" stroke-width="36.6667" stroke-miterlimit="8" fill="none" fill-rule="evenodd" transform="matrix(1 0 0 -1 1748.5 1065.17)"/><path d="M0 0 103.661 166.336" stroke="#CC3300" stroke-width="36.6667" stroke-miterlimit="8" fill="none" fill-rule="evenodd" transform="matrix(1 0 0 -1 1604.5 1248.84)"/><path d="M1741.5 1082.5 1873.83 1187.77" stroke="#CC3300" stroke-width="55" stroke-miterlimit="8" fill="none" fill-rule="evenodd"/><path d="M0 0 78.3764 174.075" stroke="#CC3300" stroke-width="36.6667" stroke-miterlimit="8" fill="none" fill-rule="evenodd" transform="matrix(1 0 0 -1 1907.5 1187.57)"/><path d="M0 0 136.554 157.348" stroke="#CC3300" stroke-width="36.6667" stroke-miterlimit="8" fill="none" fill-rule="evenodd" transform="matrix(1 0 0 -1 2180.5 1164.85)"/><path d="M2002.5 1006.5 2148.04 1165.21" stroke="#CC3300" stroke-width="36.6667" stroke-miterlimit="8" fill="none" fill-rule="evenodd"/><path d="M0 0 226.756 22.2274" stroke="#CC3300" stroke-width="36.6667" stroke-miterlimit="8" fill="none" fill-rule="evenodd" transform="matrix(1 0 0 -1 1914.5 1203.73)"/><path d="M0 0 76.6301 177.649" stroke="#CC3300" stroke-width="36.6667" stroke-miterlimit="8" fill="none" fill-rule="evenodd" transform="matrix(-1 0 0 1 1874.13 1220.5)"/><path d="M1756.99 1414.66 1604.5 1281.5" stroke="#CC3300" stroke-width="36.6667" stroke-miterlimit="8" fill="none" fill-rule="evenodd"/><path d="M0 0 255.406 61.0626" stroke="#CC3300" stroke-width="36.6667" stroke-miterlimit="8" fill="none" fill-rule="evenodd" transform="matrix(-1 0 0 1 1866.91 1203.5)"/><path d="M2014.84 1399.84 1907.5 1220.5" stroke="#CC3300" stroke-width="36.6667" stroke-miterlimit="8" fill="none" fill-rule="evenodd"/><path d="M2007.88 1416.19 1804.5 1414.5" stroke="#CC3300" stroke-width="36.6667" stroke-miterlimit="8" fill="none" fill-rule="evenodd"/><path d="M2300.83 1514.98 2047.5 1432.5" stroke="#CC3300" stroke-width="36.6667" stroke-miterlimit="8" fill="none" fill-rule="evenodd"/><path d="M2420.94 1687.34 2334.5 1548.5" stroke="#CC3300" stroke-width="36.6667" stroke-miterlimit="8" fill="none" fill-rule="evenodd"/><path d="M0 0 133.133 288.848" stroke="#CC3300" stroke-width="36.6667" stroke-miterlimit="8" fill="none" fill-rule="evenodd" transform="matrix(-1 0 0 1 2586.63 1398.5)"/><path d="M2563.31 1375.44 2345.5 1341.5" stroke="#CC3300" stroke-width="36.6667" stroke-miterlimit="8" fill="none" fill-rule="evenodd"/><path d="M0 0 244.203 75.1793" stroke="#CC3300" stroke-width="36.6667" stroke-miterlimit="8" fill="none" fill-rule="evenodd" transform="matrix(-1 0 0 1 2298.7 1341.5)"/><path d="M0 0 4.60246 143.933" stroke="#CC3300" stroke-width="36.6667" stroke-miterlimit="8" fill="none" fill-rule="evenodd" transform="matrix(-1 0 0 1 2322.1 1364.5)"/><path d="M0 0 236.147 123.723" stroke="#CC3300" stroke-width="36.6667" stroke-miterlimit="8" fill="none" fill-rule="evenodd" transform="matrix(-1 0 0 1 2570.65 1391.5)"/><path d="M2587.05 1352.22 2509.5 1195.5" stroke="#CC3300" stroke-width="36.6667" stroke-miterlimit="8" fill="none" fill-rule="evenodd"/><path d="M2476.15 1161.6 2350.5 1007.5" stroke="#CC3300" stroke-width="36.6667" stroke-miterlimit="8" fill="none" fill-rule="evenodd"/><path d="M0 0 281.618 3.25056" stroke="#CC3300" stroke-width="36.6667" stroke-miterlimit="8" fill="none" fill-rule="evenodd" transform="matrix(-1 0 0 1 2469.12 1178.5)"/><path d="M2305.28 1324.89 2180.5 1198.5" stroke="#CC3300" stroke-width="36.6667" stroke-miterlimit="8" fill="none" fill-rule="evenodd"/><path d="M0 0 137.418 129.642" stroke="#CC3300" stroke-width="36.6667" stroke-miterlimit="8" fill="none" fill-rule="evenodd" transform="matrix(1 0 0 -1 2338.5 1325.14)"/><path d="M0 0 100.003 201.571" stroke="#CC3300" stroke-width="36.6667" stroke-miterlimit="8" fill="none" fill-rule="evenodd" transform="matrix(-1 0 0 1 2147.5 1198.5)"/><path d="M1937.5 990 1958.25 948.5 2012.75 948.5 2033.5 990 2012.75 1031.5 1958.25 1031.5Z" stroke="#FFFFFF" stroke-width="20.625" stroke-miterlimit="8" fill="#CC3300" fill-rule="evenodd"/><path d="M1962 989.5C1962 976.521 1972.3 966 1985 966 1997.7 966 2008 976.521 2008 989.5 2008 1002.48 1997.7 1013 1985 1013 1972.3 1013 1962 1002.48 1962 989.5Z" fill="#CC3300" fill-rule="evenodd"/><path d="M2285.5 991 2306.25 949.5 2361.75 949.5 2382.5 991 2361.75 1032.5 2306.25 1032.5Z" stroke="#FFFFFF" stroke-width="20.625" stroke-miterlimit="8" fill="#CC3300" fill-rule="evenodd"/><path d="M2310 990.5C2310 977.521 2320.52 967 2333.5 967 2346.48 967 2357 977.521 2357 990.5 2357 1003.48 2346.48 1014 2333.5 1014 2320.52 1014 2310 1003.48 2310 990.5Z" fill="#CC3300" fill-rule="evenodd"/><path d="M1676.5 1065.5 1697.5 1023.5 1752.5 1023.5 1773.5 1065.5 1752.5 1107.5 1697.5 1107.5Z" stroke="#FFFFFF" stroke-width="20.625" stroke-miterlimit="8" fill="#CC3300" fill-rule="evenodd"/><path d="M1701 1065C1701 1052.3 1711.52 1042 1724.5 1042 1737.48 1042 1748 1052.3 1748 1065 1748 1077.7 1737.48 1088 1724.5 1088 1711.52 1088 1701 1077.7 1701 1065Z" fill="#CC3300" fill-rule="evenodd"/><path d="M1539.5 1265 1560.25 1223.5 1615.75 1223.5 1636.5 1265 1615.75 1306.5 1560.25 1306.5Z" stroke="#FFFFFF" stroke-width="20.625" stroke-miterlimit="8" fill="#CC3300" fill-rule="evenodd"/><path d="M1564 1264.5C1564 1251.52 1574.52 1241 1587.5 1241 1600.48 1241 1611 1251.52 1611 1264.5 1611 1277.48 1600.48 1288 1587.5 1288 1574.52 1288 1564 1277.48 1564 1264.5Z" fill="#CC3300" fill-rule="evenodd"/><path d="M1842.5 1204 1863.25 1162.5 1917.75 1162.5 1938.5 1204 1917.75 1245.5 1863.25 1245.5Z" stroke="#FFFFFF" stroke-width="20.625" stroke-miterlimit="8" fill="#CC3300" fill-rule="evenodd"/><path d="M1867 1203.5C1867 1190.52 1877.52 1180 1890.5 1180 1903.48 1180 1914 1190.52 1914 1203.5 1914 1216.48 1903.48 1227 1890.5 1227 1877.52 1227 1867 1216.48 1867 1203.5Z" fill="#CC3300" fill-rule="evenodd"/><path d="M2444.5 1178.5 2465.5 1136.5 2520.5 1136.5 2541.5 1178.5 2520.5 1220.5 2465.5 1220.5Z" stroke="#FFFFFF" stroke-width="20.625" stroke-miterlimit="8" fill="#CC3300" fill-rule="evenodd"/><path d="M2469 1177.5C2469 1164.52 2479.52 1154 2492.5 1154 2505.48 1154 2516 1164.52 2516 1177.5 2516 1190.48 2505.48 1201 2492.5 1201 2479.52 1201 2469 1190.48 2469 1177.5Z" fill="#CC3300" fill-rule="evenodd"/><path d="M2538.5 1375 2559.25 1333.5 2614.75 1333.5 2635.5 1375 2614.75 1416.5 2559.25 1416.5Z" stroke="#FFFFFF" stroke-width="20.625" stroke-miterlimit="8" fill="#CC3300" fill-rule="evenodd"/><path d="M2563 1374.5C2563 1361.52 2573.52 1351 2586.5 1351 2599.48 1351 2610 1361.52 2610 1374.5 2610 1387.48 2599.48 1398 2586.5 1398 2573.52 1398 2563 1387.48 2563 1374.5Z" fill="#CC3300" fill-rule="evenodd"/><path d="M2273.5 1341 2294.25 1299.5 2349.75 1299.5 2370.5 1341 2349.75 1382.5 2294.25 1382.5Z" stroke="#FFFFFF" stroke-width="20.625" stroke-miterlimit="8" fill="#CC3300" fill-rule="evenodd"/><path d="M2298 1340.5C2298 1327.52 2308.52 1317 2321.5 1317 2334.48 1317 2345 1327.52 2345 1340.5 2345 1353.48 2334.48 1364 2321.5 1364 2308.52 1364 2298 1353.48 2298 1340.5Z" fill="#CC3300" fill-rule="evenodd"/><path d="M1982.5 1416.5 2003.5 1374.5 2058.5 1374.5 2079.5 1416.5 2058.5 1458.5 2003.5 1458.5Z" stroke="#FFFFFF" stroke-width="20.625" stroke-miterlimit="8" fill="#CC3300" fill-rule="evenodd"/><path d="M2007 1415.5C2007 1402.52 2017.52 1392 2030.5 1392 2043.48 1392 2054 1402.52 2054 1415.5 2054 1428.48 2043.48 1439 2030.5 1439 2017.52 1439 2007 1428.48 2007 1415.5Z" fill="#CC3300" fill-rule="evenodd"/><path d="M1732.5 1415 1753.25 1373.5 1808.75 1373.5 1829.5 1415 1808.75 1456.5 1753.25 1456.5Z" stroke="#FFFFFF" stroke-width="20.625" stroke-miterlimit="8" fill="#CC3300" fill-rule="evenodd"/><path d="M1757 1414.5C1757 1401.52 1767.52 1391 1780.5 1391 1793.48 1391 1804 1401.52 1804 1414.5 1804 1427.48 1793.48 1438 1780.5 1438 1767.52 1438 1757 1427.48 1757 1414.5Z" fill="#CC3300" fill-rule="evenodd"/><path d="M2269.5 1532 2290.25 1490.5 2344.75 1490.5 2365.5 1532 2344.75 1573.5 2290.25 1573.5Z" stroke="#FFFFFF" stroke-width="20.625" stroke-miterlimit="8" fill="#CC3300" fill-rule="evenodd"/><path d="M2294 1531.5C2294 1518.52 2304.3 1508 2317 1508 2329.7 1508 2340 1518.52 2340 1531.5 2340 1544.48 2329.7 1555 2317 1555 2304.3 1555 2294 1544.48 2294 1531.5Z" fill="#CC3300" fill-rule="evenodd"/><path d="M2388.5 1704 2409.25 1662.5 2464.75 1662.5 2485.5 1704 2464.75 1745.5 2409.25 1745.5Z" stroke="#FFFFFF" stroke-width="20.625" stroke-miterlimit="8" fill="#CC3300" fill-rule="evenodd"/><path d="M2413 1703.5C2413 1690.52 2423.52 1680 2436.5 1680 2449.48 1680 2460 1690.52 2460 1703.5 2460 1716.48 2449.48 1727 2436.5 1727 2423.52 1727 2413 1716.48 2413 1703.5Z" fill="#CC3300" fill-rule="evenodd"/><path d="M2115.5 1182 2136.25 1140.5 2191.75 1140.5 2212.5 1182 2191.75 1223.5 2136.25 1223.5Z" stroke="#FFFFFF" stroke-width="20.625" stroke-miterlimit="8" fill="#CC3300" fill-rule="evenodd"/><path d="M2140 1181.5C2140 1168.52 2150.52 1158 2163.5 1158 2176.48 1158 2187 1168.52 2187 1181.5 2187 1194.48 2176.48 1205 2163.5 1205 2150.52 1205 2140 1194.48 2140 1181.5Z" fill="#CC3300" fill-rule="evenodd"/></g></svg>