<svg width="174" height="147" xmlns="http://www.w3.org/2000/svg" xmlns:xlink="http://www.w3.org/1999/xlink" xml:space="preserve" overflow="hidden"><defs><clipPath id="clip0"><rect x="147" y="58" width="174" height="147"/></clipPath><clipPath id="clip1"><path d="M237.757 98.2108 219.545 77.1662 240.589 58.955 258.801 79.9995Z" fill-rule="evenodd" clip-rule="evenodd"/></clipPath><clipPath id="clip2"><path d="M237.757 98.2108 219.545 77.1662 240.589 58.955 258.801 79.9995Z" fill-rule="evenodd" clip-rule="evenodd"/></clipPath><clipPath id="clip3"><path d="M237.757 98.2108 219.545 77.1662 240.589 58.955 258.801 79.9995Z" fill-rule="evenodd" clip-rule="evenodd"/></clipPath></defs><g clip-path="url(#clip0)" transform="translate(-147 -58)"><path d="M190.757 90.4296 209.91 70.3126 232.642 88.153Z" stroke="#F2F2F2" stroke-width="2.29167" stroke-miterlimit="8" fill="#2E75B6" fill-rule="evenodd"/><path d="M170.468 77.8167 151 102.765 203.092 104.601 228.105 129 238 108.991 231.998 87.8184 192.799 89.8021 210.522 71.0002 170.468 77.8167Z" stroke="#F2F2F2" stroke-width="2.29167" stroke-miterlimit="8" fill="#FF0000" fill-rule="evenodd"/><path d="M167 79.0001C167 77.8955 167.895 77 169 77 170.104 77 171 77.8955 171 79.0001 171 80.1047 170.104 81.0001 169 81.0001 167.895 81.0001 167 80.1047 167 79.0001Z" stroke="#F2F2F2" stroke-width="2.29167" stroke-miterlimit="8" fill="#FFFFFF" fill-rule="evenodd"/><path d="M208 71C208 69.8955 208.895 69.0001 210 69.0001 211.105 69.0001 212 69.8955 212 71 212 72.1045 211.105 72.9999 210 72.9999 208.895 72.9999 208 72.1045 208 71Z" stroke="#F2F2F2" stroke-width="2.29167" stroke-miterlimit="8" fill="#FFFFFF" fill-rule="evenodd"/><path d="M148 103C148 101.895 148.896 101 150 101 151.105 101 152 101.895 152 103 152 104.104 151.105 105 150 105 148.896 105 148 104.104 148 103Z" stroke="#F2F2F2" stroke-width="2.29167" stroke-miterlimit="8" fill="#FFFFFF" fill-rule="evenodd"/><path d="M191 89.5001C191 88.1193 191.672 87 192.5 87 193.328 87 194 88.1193 194 89.5001 194 90.8808 193.328 92.0001 192.5 92.0001 191.672 92.0001 191 90.8808 191 89.5001Z" stroke="#F2F2F2" stroke-width="2.29167" stroke-miterlimit="8" fill="#FFFFFF" fill-rule="evenodd"/><path d="M229 88C229 86.8954 229.895 85.9999 231 85.9999 232.105 85.9999 233 86.8954 233 88 233 89.1046 232.105 90.0001 231 90.0001 229.895 90.0001 229 89.1046 229 88Z" stroke="#F2F2F2" stroke-width="2.29167" stroke-miterlimit="8" fill="#FFFFFF" fill-rule="evenodd"/><path d="M235 109C235 107.895 235.896 107 237 107 238.105 107 239 107.895 239 109 239 110.105 238.105 111 237 111 235.896 111 235 110.105 235 109Z" stroke="#F2F2F2" stroke-width="2.29167" stroke-miterlimit="8" fill="#FFFFFF" fill-rule="evenodd"/><path d="M0 0 38.6599 13.1812" stroke="#F2F2F2" stroke-width="2.29167" stroke-miterlimit="8" fill="none" fill-rule="evenodd" transform="matrix(1 0 0 -1 152 102.181)"/><path d="M0 0 34.4818 1.74311" stroke="#F2F2F2" stroke-width="2.29167" stroke-miterlimit="8" fill="none" fill-rule="evenodd" transform="matrix(1 0 0 -1 194 89.7431)"/><path d="M201 104C201 102.895 201.895 102 203 102 204.104 102 205 102.895 205 104 205 105.104 204.104 106 203 106 201.895 106 201 105.104 201 104Z" stroke="#F2F2F2" stroke-width="2.29167" stroke-miterlimit="8" fill="#FFFFFF" fill-rule="evenodd"/><path d="M152 103 201.034 104.578" stroke="#F2F2F2" stroke-width="2.29167" stroke-miterlimit="8" fill="none" fill-rule="evenodd"/><path d="M205 104 234.997 108.497" stroke="#F2F2F2" stroke-width="2.29167" stroke-miterlimit="8" fill="none" fill-rule="evenodd"/><path d="M232 89 236.548 106.454" stroke="#F2F2F2" stroke-width="2.29167" stroke-miterlimit="8" fill="none" fill-rule="evenodd"/><path d="M171 80.0001 191.646 87.5305" stroke="#F2F2F2" stroke-width="2.29167" stroke-miterlimit="8" fill="none" fill-rule="evenodd"/><path d="M0 0 16.4437 20.7116" stroke="#F2F2F2" stroke-width="2.29167" stroke-miterlimit="8" fill="none" fill-rule="evenodd" transform="matrix(1 0 0 -1 151 100.712)"/><path d="M194 91.0001 201.693 102.822" stroke="#F2F2F2" stroke-width="2.29167" stroke-miterlimit="8" fill="none" fill-rule="evenodd"/><path d="M0 0 25.2188 13.5652" stroke="#F2F2F2" stroke-width="2.29167" stroke-miterlimit="8" fill="none" fill-rule="evenodd" transform="matrix(-1 0 0 1 229.219 89)"/><path d="M0 0 14.5173 15.3036" stroke="#F2F2F2" stroke-width="2.29167" stroke-miterlimit="8" fill="none" fill-rule="evenodd" transform="matrix(1 0 0 -1 194 88.3035)"/><path d="M0 0 37.2888 6.30479" stroke="#F2F2F2" stroke-width="2.29167" stroke-miterlimit="8" fill="none" fill-rule="evenodd" transform="matrix(1 0 0 -1 171 77.305)"/><path d="M226 127.5C226 126.119 226.895 125 228 125 229.105 125 230 126.119 230 127.5 230 128.881 229.105 130 228 130 226.895 130 226 128.881 226 127.5Z" stroke="#F2F2F2" stroke-width="2.29167" stroke-miterlimit="8" fill="#FFFFFF" fill-rule="evenodd"/><path d="M204 106 225.585 127.712" stroke="#F2F2F2" stroke-width="2.29167" stroke-miterlimit="8" fill="none" fill-rule="evenodd"/><path d="M0 0 7.62638 15.1391" stroke="#F2F2F2" stroke-width="2.29167" stroke-miterlimit="8" fill="none" fill-rule="evenodd" transform="matrix(1 0 0 -1 229 126.139)"/><g clip-path="url(#clip1)"><g clip-path="url(#clip2)"><g clip-path="url(#clip3)"><path d="M20.2433 9.22734 12.996 16.4747C12.7783 16.6921 12.4832 16.8141 12.1756 16.8139 12.0775 16.8119 11.98 16.7973 11.8857 16.7704L1.56833 27.079C1.32512 27.2873 0.959107 27.259 0.750826 27.0158 0.56494 26.7987 0.56494 26.4786 0.750826 26.2615L11.0595 15.9442C10.9512 15.5471 11.0615 15.1223 11.3494 14.8281L18.5967 7.58074C19.0498 7.12763 19.7844 7.12763 20.2375 7.58074 20.6906 8.03384 20.6906 8.76843 20.2375 9.22154Z" fill="#FFC000" transform="matrix(-0.654396 -0.756186 0.756166 -0.654379 237.757 98.2108)"/><path d="M20.0027 13.3351C19.6825 13.3351 19.4229 13.5947 19.4229 13.9149L19.4229 17.9734C19.4229 18.2937 19.6825 18.5532 20.0027 18.5532 20.3229 18.5532 20.5825 18.2937 20.5825 17.9734L20.5825 13.9149C20.5825 13.5947 20.3229 13.3351 20.0027 13.3351Z" fill="#FFC000" transform="matrix(-0.654396 -0.756186 0.756166 -0.654379 237.757 98.2108)"/><path d="M22.6118 8.40693 26.6703 8.40693C26.9905 8.40693 27.2501 8.14736 27.2501 7.82715 27.2501 7.50693 26.9905 7.24736 26.6703 7.24736L22.6118 7.24736C22.2915 7.24736 22.032 7.50693 22.032 7.82715 22.032 8.14736 22.2915 8.40693 22.6118 8.40693Z" fill="#FFC000" transform="matrix(-0.654396 -0.756186 0.756166 -0.654379 237.757 98.2108)"/><path d="M8.11704 13.3351C8.19354 13.335 8.26929 13.3202 8.34026 13.2917L13.5584 11.1174C13.8545 10.9942 13.9947 10.6541 13.8714 10.3579 13.7482 10.0617 13.4081 9.92155 13.1119 10.0448L7.89382 12.219C7.59764 12.3407 7.45614 12.6795 7.57778 12.9756 7.66753 13.1941 7.88083 13.3363 8.11704 13.3351Z" fill="#FFC000" transform="matrix(-0.654396 -0.756186 0.756166 -0.654379 237.757 98.2108)"/><path d="M12.7554 8.40693 15.9442 8.40693C16.2644 8.40693 16.524 8.14736 16.524 7.82715 16.524 7.50693 16.2644 7.24736 15.9442 7.24736L12.7554 7.24736C12.4351 7.24736 12.1756 7.50693 12.1756 7.82715 12.1756 8.14736 12.4351 8.40693 12.7554 8.40693Z" fill="#FFC000" transform="matrix(-0.654396 -0.756186 0.756166 -0.654379 237.757 98.2108)"/><path d="M9.27662 8.40693 10.7261 8.40693C11.0463 8.40693 11.3059 8.14736 11.3059 7.82715 11.3059 7.50693 11.0463 7.24736 10.7261 7.24736L9.27662 7.24736C8.9564 7.24736 8.69683 7.50693 8.69683 7.82715 8.69683 8.14736 8.9564 8.40693 9.27662 8.40693Z" fill="#FFC000" transform="matrix(-0.654396 -0.756186 0.756166 -0.654379 237.757 98.2108)"/><path d="M20.0027 5.79789C20.3229 5.79789 20.5825 5.53832 20.5825 5.2181L20.5825 4.05852C20.5825 3.7383 20.3229 3.47873 20.0027 3.47873 19.6825 3.47873 19.4229 3.7383 19.4229 4.05852L19.4229 5.2181C19.4229 5.53832 19.6825 5.79789 20.0027 5.79789Z" fill="#FFC000" transform="matrix(-0.654396 -0.756186 0.756166 -0.654379 237.757 98.2108)"/><path d="M20.0027 2.60905C20.3229 2.60905 20.5825 2.34947 20.5825 2.02926L20.5825 1.15958C20.5825 0.839369 20.3229 0.579789 20.0027 0.579789 19.6825 0.579789 19.4229 0.839369 19.4229 1.15958L19.4229 2.02926C19.4229 2.34947 19.6825 2.60905 20.0027 2.60905Z" fill="#FFC000" transform="matrix(-0.654396 -0.756186 0.756166 -0.654379 237.757 98.2108)"/><path d="M23.9163 4.49336C24.0698 4.49272 24.2168 4.43121 24.325 4.32232L25.7745 2.87285C25.9828 2.62964 25.9545 2.26363 25.7112 2.05535 25.4942 1.86946 25.1741 1.86946 24.957 2.05535L23.5075 3.50482C23.2818 3.73193 23.2829 4.09902 23.51 4.32476 23.618 4.43217 23.7639 4.49272 23.9163 4.49336Z" fill="#FFC000" transform="matrix(-0.654396 -0.756186 0.756166 -0.654379 237.757 98.2108)"/><path d="M25.0063 5.11374C24.7085 5.23143 24.5625 5.56826 24.6802 5.86604 24.7678 6.08781 24.9823 6.23331 25.2208 6.23273 25.2942 6.23218 25.3668 6.21844 25.4353 6.19214L26.1601 5.90225C26.4579 5.78377 26.6032 5.44633 26.4847 5.14852 26.3663 4.85071 26.0288 4.70536 25.731 4.82384Z" fill="#FFC000" transform="matrix(-0.654396 -0.756186 0.756166 -0.654379 237.757 98.2108)"/><path d="M24.7599 11.7668C24.5167 11.5585 24.1507 11.5868 23.9424 11.8301 23.7565 12.0471 23.7565 12.3672 23.9424 12.5843L26.2615 14.9035C26.5047 15.1118 26.8707 15.0834 27.079 14.8402 27.2649 14.6232 27.2649 14.303 27.079 14.086Z" fill="#FFC000" transform="matrix(-0.654396 -0.756186 0.756166 -0.654379 237.757 98.2108)"/><path d="M23.0205 10.0274 22.4407 9.44766C22.1975 9.23937 21.8315 9.26769 21.6232 9.51091 21.4373 9.72795 21.4373 10.0481 21.6232 10.2652L22.203 10.8449C22.4462 11.0532 22.8122 11.0249 23.0205 10.7817 23.2064 10.5646 23.2064 10.2445 23.0205 10.0274Z" fill="#FFC000" transform="matrix(-0.654396 -0.756186 0.756166 -0.654379 237.757 98.2108)"/><path d="M17.6836 4.9282C17.6836 5.24841 17.424 5.50799 17.1038 5.50799 16.7836 5.50799 16.524 5.24841 16.524 4.9282 16.524 4.608 16.7836 4.34841 17.1038 4.34841 17.424 4.34841 17.6836 4.608 17.6836 4.9282Z" fill="#FFC000" transform="matrix(-0.654396 -0.756186 0.756166 -0.654379 237.757 98.2108)"/><path d="M15.3905 4.03243C15.6337 4.24072 15.9997 4.2124 16.208 3.96918 16.3939 3.75213 16.3939 3.432 16.208 3.21493L14.0338 1.04072C13.7906 0.83244 13.4246 0.860757 13.2163 1.10397 13.0304 1.32103 13.0304 1.64116 13.2163 1.85822Z" fill="#FFC000" transform="matrix(-0.654396 -0.756186 0.756166 -0.654379 237.757 98.2108)"/><path d="M20.5825 11.5958C20.5825 11.916 20.3229 12.1756 20.0027 12.1756 19.6825 12.1756 19.4229 11.916 19.4229 11.5958 19.4229 11.2756 19.6825 11.016 20.0027 11.016 20.3229 11.016 20.5825 11.2756 20.5825 11.5958Z" fill="#FFC000" transform="matrix(-0.654396 -0.756186 0.756166 -0.654379 237.757 98.2108)"/><path d="M24.0612 16.2341C24.0612 16.5543 23.8016 16.8139 23.4814 16.8139 23.1612 16.8139 22.9017 16.5543 22.9017 16.2341 22.9017 15.9139 23.1612 15.6543 23.4814 15.6543 23.8016 15.6543 24.0612 15.9139 24.0612 16.2341Z" fill="#FFC000" transform="matrix(-0.654396 -0.756186 0.756166 -0.654379 237.757 98.2108)"/><path d="M12.1756 4.34841C12.1756 4.66862 11.916 4.9282 11.5958 4.9282 11.2756 4.9282 11.016 4.66862 11.016 4.34841 11.016 4.02821 11.2756 3.76863 11.5958 3.76863 11.916 3.76863 12.1756 4.02821 12.1756 4.34841Z" fill="#FFC000" transform="matrix(-0.654396 -0.756186 0.756166 -0.654379 237.757 98.2108)"/><path d="M10.1463 3.47873C10.1463 3.79894 9.88672 4.05852 9.56651 4.05852 9.2463 4.05852 8.98672 3.79894 8.98672 3.47873 8.98672 3.15852 9.2463 2.89894 9.56651 2.89894 9.88672 2.89894 10.1463 3.15852 10.1463 3.47873Z" fill="#FFC000" transform="matrix(-0.654396 -0.756186 0.756166 -0.654379 237.757 98.2108)"/><path d="M5.79789 13.9149C5.79789 14.2351 5.53831 14.4947 5.2181 14.4947 4.89789 14.4947 4.63831 14.2351 4.63831 13.9149 4.63831 13.5947 4.89789 13.3351 5.2181 13.3351 5.53831 13.3351 5.79789 13.5947 5.79789 13.9149Z" fill="#FFC000" transform="matrix(-0.654396 -0.756186 0.756166 -0.654379 237.757 98.2108)"/></g></g></g><path d="M253.45 88.8417C248.772 85.772 247.468 79.4909 250.538 74.8126L250.538 74.8126C253.608 70.1343 259.889 68.8304 264.567 71.9002L305.887 99.0133C310.565 102.083 311.869 108.364 308.799 113.042L308.799 113.042C305.729 117.721 299.448 119.025 294.77 115.955Z" fill="#4472C4" fill-rule="evenodd"/><path d="M237.857 169.545 296.544 95.0274 310.231 104.009 265.231 187.508Z" fill="#2E75B6" fill-rule="evenodd"/><path d="M281.835 95.9797C287.98 86.6142 300.598 84.0323 310.017 90.2129 319.436 96.3935 322.09 108.996 315.944 118.362 309.799 127.727 297.181 130.309 287.762 124.128 278.343 117.948 275.69 105.345 281.835 95.9797ZM297.097 105.994C296.482 106.931 296.787 108.217 297.777 108.866 298.767 109.516 300.068 109.284 300.683 108.347 301.297 107.41 300.993 106.125 300.003 105.475 299.012 104.825 297.712 105.058 297.097 105.994Z" stroke="#F2F2F2" stroke-width="3.4375" stroke-miterlimit="8" fill="#4472C4" fill-rule="evenodd"/><path d="M248.066 77.8694C249.095 72.2361 254.496 68.5036 260.129 69.5327 265.763 70.5618 269.495 75.9627 268.466 81.596 267.437 87.2293 262.036 90.9617 256.403 89.9327 250.769 88.9036 247.037 83.5027 248.066 77.8694Z" stroke="#F2F2F2" stroke-width="3.4375" stroke-miterlimit="8" fill="none" fill-rule="evenodd"/><path d="M233.5 203.5 233.5 183C233.5 171.678 242.454 162.5 253.5 162.5 264.546 162.5 273.5 171.678 273.5 183L273.5 203.5Z" stroke="#F2F2F2" stroke-width="3.4375" stroke-miterlimit="8" fill="#4472C4" fill-rule="evenodd"/></g></svg>