<svg width="873" height="1026" xmlns="http://www.w3.org/2000/svg" xmlns:xlink="http://www.w3.org/1999/xlink" xml:space="preserve" overflow="hidden"><defs><clipPath id="clip0"><rect x="2381" y="740" width="873" height="1026"/></clipPath><clipPath id="clip1"><rect x="2381" y="929" width="197" height="197"/></clipPath><clipPath id="clip2"><rect x="2381" y="929" width="197" height="197"/></clipPath><clipPath id="clip3"><rect x="2381" y="929" width="197" height="197"/></clipPath></defs><g clip-path="url(#clip0)" transform="translate(-2381 -740)"><path d="M2623.5 1763.5 2623.5 1548C2623.5 1428.98 2717.97 1332.5 2834.5 1332.5 2951.03 1332.5 3045.5 1428.98 3045.5 1548L3045.5 1763.5Z" stroke="#2F528F" stroke-width="4.58333" stroke-miterlimit="8" fill="#4472C4" fill-rule="evenodd"/><path d="M2951.33 1599.02C2926.58 1658.09 2858.63 1685.91 2799.56 1661.16L2799.56 1661.16C2740.49 1636.41 2712.67 1568.46 2737.43 1509.39L2924.89 1062C2949.64 1002.93 3017.59 975.109 3076.66 999.86L3076.66 999.86C3135.73 1024.61 3163.55 1092.56 3138.8 1151.63Z" stroke="#2F528F" stroke-width="4.58333" stroke-miterlimit="8" fill="#4472C4" fill-rule="evenodd"/><path d="M2692.61 972.845C2660.32 959.03 2645.35 921.656 2659.16 889.367L2659.16 889.367C2672.98 857.078 2710.35 842.101 2742.64 855.915L3081.47 1000.87C3113.76 1014.69 3128.73 1052.06 3114.92 1084.35L3114.92 1084.35C3101.1 1116.64 3063.73 1131.62 3031.44 1117.8Z" stroke="#2F528F" stroke-width="4.58333" stroke-miterlimit="8" fill="#4472C4" fill-rule="evenodd"/><path d="M2952.5 1115.5C2952.5 1066.9 2991.68 1027.5 3040 1027.5 3088.32 1027.5 3127.5 1066.9 3127.5 1115.5 3127.5 1164.1 3088.32 1203.5 3040 1203.5 2991.68 1203.5 2952.5 1164.1 2952.5 1115.5Z" stroke="#2F528F" stroke-width="4.58333" stroke-miterlimit="8" fill="#FFFFFF" fill-rule="evenodd"/><path d="M2874.5 1115.5C2874.5 1024.37 2948.37 950.5 3039.5 950.5 3130.63 950.5 3204.5 1024.37 3204.5 1115.5 3204.5 1206.63 3130.63 1280.5 3039.5 1280.5 2948.37 1280.5 2874.5 1206.63 2874.5 1115.5ZM2957 1115.5C2957 1161.06 2993.94 1198 3039.5 1198 3085.06 1198 3122 1161.06 3122 1115.5 3122 1069.94 3085.06 1033 3039.5 1033 2993.94 1033 2957 1069.94 2957 1115.5Z" stroke="#2F528F" stroke-width="4.58333" stroke-miterlimit="8" fill="#4472C4" fill-rule="evenodd"/><path d="M2825 1115.5C2825 996.483 2921.03 900 3039.5 900 3157.97 900 3254 996.483 3254 1115.5 3254 1234.52 3157.97 1331 3039.5 1331 2921.03 1331 2825 1234.52 2825 1115.5ZM2884.21 1115.5C2884.21 1201.82 2953.73 1271.79 3039.5 1271.79 3125.27 1271.79 3194.79 1201.82 3194.79 1115.5 3194.79 1029.18 3125.27 959.206 3039.5 959.206 2953.73 959.206 2884.21 1029.18 2884.21 1115.5Z" fill="#FFFFFF" fill-rule="evenodd"/><path d="M2595.5 880C2595.5 848.796 2621.02 823.5 2652.5 823.5 2683.98 823.5 2709.5 848.796 2709.5 880 2709.5 911.204 2683.98 936.5 2652.5 936.5 2621.02 936.5 2595.5 911.204 2595.5 880Z" stroke="#2F528F" stroke-width="4.58333" stroke-miterlimit="8" fill="#FFFFFF" fill-rule="evenodd"/><path d="M2545.5 880C2545.5 821.182 2593.18 773.5 2652 773.5 2710.82 773.5 2758.5 821.182 2758.5 880 2758.5 938.818 2710.82 986.5 2652 986.5 2593.18 986.5 2545.5 938.818 2545.5 880ZM2598.75 880C2598.75 909.409 2622.59 933.25 2652 933.25 2681.41 933.25 2705.25 909.409 2705.25 880 2705.25 850.591 2681.41 826.75 2652 826.75 2622.59 826.75 2598.75 850.591 2598.75 880Z" stroke="#2F528F" stroke-width="4.58333" stroke-miterlimit="8" fill="#4472C4" fill-rule="evenodd"/><path d="M2514 879C2514 802.232 2575.78 740 2652 740 2728.22 740 2790 802.232 2790 879 2790 955.767 2728.22 1018 2652 1018 2575.78 1018 2514 955.767 2514 879ZM2552.09 879C2552.09 934.73 2596.82 979.909 2652 979.909 2707.18 979.909 2751.91 934.73 2751.91 879 2751.91 823.27 2707.18 778.091 2652 778.091 2596.82 778.091 2552.09 823.27 2552.09 879Z" fill="#FFFFFF" fill-rule="evenodd"/><path d="M2749.5 1539C2749.5 1490.68 2788.9 1451.5 2837.5 1451.5 2886.1 1451.5 2925.5 1490.68 2925.5 1539 2925.5 1587.32 2886.1 1626.5 2837.5 1626.5 2788.9 1626.5 2749.5 1587.32 2749.5 1539Z" stroke="#2F528F" stroke-width="4.58333" stroke-miterlimit="8" fill="#FFFFFF" fill-rule="evenodd"/><path d="M2672.5 1538.5C2672.5 1447.37 2746.37 1373.5 2837.5 1373.5 2928.63 1373.5 3002.5 1447.37 3002.5 1538.5 3002.5 1629.63 2928.63 1703.5 2837.5 1703.5 2746.37 1703.5 2672.5 1629.63 2672.5 1538.5ZM2755 1538.5C2755 1584.06 2791.94 1621 2837.5 1621 2883.06 1621 2920 1584.06 2920 1538.5 2920 1492.94 2883.06 1456 2837.5 1456 2791.94 1456 2755 1492.94 2755 1538.5Z" stroke="#2F528F" stroke-width="4.58333" stroke-miterlimit="8" fill="#4472C4" fill-rule="evenodd"/><path d="M2623 1538.5C2623 1419.48 2718.81 1323 2837 1323 2955.19 1323 3051 1419.48 3051 1538.5 3051 1657.52 2955.19 1754 2837 1754 2718.81 1754 2623 1657.52 2623 1538.5ZM2682.07 1538.5C2682.07 1624.9 2751.43 1694.93 2837 1694.93 2922.57 1694.93 2991.93 1624.9 2991.93 1538.5 2991.93 1452.11 2922.57 1382.07 2837 1382.07 2751.43 1382.07 2682.07 1452.11 2682.07 1538.5Z" fill="#FFFFFF" fill-rule="evenodd"/><g clip-path="url(#clip1)"><g clip-path="url(#clip2)"><g clip-path="url(#clip3)"><path d="M141.842 64.6548 91.0611 115.436C89.536 116.96 87.4682 117.814 85.3126 117.813 84.6252 117.799 83.9425 117.697 83.2814 117.508L10.9891 189.739C9.28492 191.199 6.72034 191 5.26094 189.296 3.95846 187.775 3.95846 185.532 5.26094 184.011L77.4923 111.719C76.7334 108.936 77.5065 105.96 79.5235 103.899L130.305 53.1173C133.48 49.9424 138.627 49.9424 141.802 53.1173 144.977 56.2921 144.977 61.4393 141.802 64.6141Z" transform="matrix(-1.00513 1.23093e-16 -1.22465e-16 -1 2577 1125)"/><path d="M140.156 93.4376C137.913 93.4376 136.094 95.2564 136.094 97.5001L136.094 125.938C136.094 128.181 137.913 130 140.156 130 142.4 130 144.219 128.181 144.219 125.938L144.219 97.5001C144.219 95.2564 142.4 93.4376 140.156 93.4376Z" transform="matrix(-1.00513 1.23093e-16 -1.22465e-16 -1 2577 1125)"/><path d="M158.438 58.9063 186.875 58.9063C189.119 58.9063 190.938 57.0875 190.938 54.8438 190.938 52.6001 189.119 50.7813 186.875 50.7813L158.438 50.7813C156.194 50.7813 154.375 52.6001 154.375 54.8438 154.375 57.0875 156.194 58.9063 158.438 58.9063Z" transform="matrix(-1.00513 1.23093e-16 -1.22465e-16 -1 2577 1125)"/><path d="M56.8751 93.4376C57.4111 93.4366 57.9419 93.3332 58.4391 93.1329L95.0017 77.8985C97.077 77.0347 98.0593 74.652 97.1954 72.5767 96.3316 70.5013 93.9489 69.519 91.8736 70.3829L55.311 85.6173C53.2357 86.4698 52.2442 88.8433 53.0965 90.9187 53.7254 92.4496 55.22 93.446 56.8751 93.4376Z" transform="matrix(-1.00513 1.23093e-16 -1.22465e-16 -1 2577 1125)"/><path d="M89.3751 58.9063 111.719 58.9063C113.963 58.9063 115.781 57.0875 115.781 54.8438 115.781 52.6001 113.963 50.7813 111.719 50.7813L89.3751 50.7813C87.1314 50.7813 85.3126 52.6001 85.3126 54.8438 85.3126 57.0875 87.1314 58.9063 89.3751 58.9063Z" transform="matrix(-1.00513 1.23093e-16 -1.22465e-16 -1 2577 1125)"/><path d="M65.0001 58.9063 75.1563 58.9063C77.4001 58.9063 79.2188 57.0875 79.2188 54.8438 79.2188 52.6001 77.4001 50.7813 75.1563 50.7813L65.0001 50.7813C62.7564 50.7813 60.9376 52.6001 60.9376 54.8438 60.9376 57.0875 62.7564 58.9063 65.0001 58.9063Z" transform="matrix(-1.00513 1.23093e-16 -1.22465e-16 -1 2577 1125)"/><path d="M140.156 40.6251C142.4 40.6251 144.219 38.8063 144.219 36.5625L144.219 28.4375C144.219 26.1938 142.4 24.375 140.156 24.375 137.913 24.375 136.094 26.1938 136.094 28.4375L136.094 36.5625C136.094 38.8063 137.913 40.6251 140.156 40.6251Z" transform="matrix(-1.00513 1.23093e-16 -1.22465e-16 -1 2577 1125)"/><path d="M140.156 18.2813C142.4 18.2813 144.219 16.4624 144.219 14.2188L144.219 8.12501C144.219 5.88135 142.4 4.06251 140.156 4.06251 137.913 4.06251 136.094 5.88135 136.094 8.12501L136.094 14.2188C136.094 16.4624 137.913 18.2813 140.156 18.2813Z" transform="matrix(-1.00513 1.23093e-16 -1.22465e-16 -1 2577 1125)"/><path d="M167.578 31.4844C168.654 31.4799 169.684 31.0489 170.442 30.286L180.599 20.1297C182.058 18.4256 181.86 15.861 180.155 14.4016 178.635 13.0991 176.392 13.0991 174.871 14.4016L164.714 24.5578C163.133 26.1491 163.14 28.7213 164.731 30.303 165.488 31.0556 166.511 31.4799 167.578 31.4844Z" transform="matrix(-1.00513 1.23093e-16 -1.22465e-16 -1 2577 1125)"/><path d="M175.216 35.8313C173.129 36.656 172.106 39.0161 172.931 41.1026 173.545 42.6565 175.048 43.676 176.719 43.6719 177.233 43.6681 177.742 43.5718 178.222 43.3876L183.3 41.3563C185.387 40.5261 186.405 38.1618 185.575 36.075 184.745 33.9883 182.38 32.9699 180.294 33.8Z" transform="matrix(-1.00513 1.23093e-16 -1.22465e-16 -1 2577 1125)"/><path d="M173.489 82.4485C171.785 80.9891 169.221 81.1875 167.761 82.8918 166.459 84.4126 166.459 86.6557 167.761 88.1767L184.011 104.427C185.715 105.886 188.28 105.688 189.739 103.983 191.042 102.463 191.042 100.22 189.739 98.6986Z" transform="matrix(-1.00513 1.23093e-16 -1.22465e-16 -1 2577 1125)"/><path d="M161.302 70.261 157.239 66.1985C155.535 64.7391 152.971 64.9375 151.511 66.6417 150.209 68.1625 150.209 70.4057 151.511 71.9267L155.574 75.9892C157.278 77.4486 159.842 77.2502 161.302 75.5459 162.604 74.0251 162.604 71.782 161.302 70.261Z" transform="matrix(-1.00513 1.23093e-16 -1.22465e-16 -1 2577 1125)"/><path d="M123.906 34.5313C123.906 36.775 122.088 38.5938 119.844 38.5938 117.6 38.5938 115.781 36.775 115.781 34.5313 115.781 32.2876 117.6 30.4688 119.844 30.4688 122.088 30.4688 123.906 32.2876 123.906 34.5313Z" transform="matrix(-1.00513 1.23093e-16 -1.22465e-16 -1 2577 1125)"/><path d="M107.839 28.2547C109.543 29.7142 112.108 29.5157 113.567 27.8115 114.87 26.2907 114.87 24.0476 113.567 22.5266L98.3329 7.2922C96.6287 5.8328 94.0643 6.03122 92.6048 7.73536 91.3024 9.25628 91.3024 11.4994 92.6048 13.0203Z" transform="matrix(-1.00513 1.23093e-16 -1.22465e-16 -1 2577 1125)"/><path d="M144.219 81.2501C144.219 83.4938 142.4 85.3126 140.156 85.3126 137.913 85.3126 136.094 83.4938 136.094 81.2501 136.094 79.0064 137.913 77.1876 140.156 77.1876 142.4 77.1876 144.219 79.0064 144.219 81.2501Z" transform="matrix(-1.00513 1.23093e-16 -1.22465e-16 -1 2577 1125)"/><path d="M168.594 113.75C168.594 115.994 166.775 117.813 164.531 117.813 162.288 117.813 160.469 115.994 160.469 113.75 160.469 111.506 162.288 109.688 164.531 109.688 166.775 109.688 168.594 111.506 168.594 113.75Z" transform="matrix(-1.00513 1.23093e-16 -1.22465e-16 -1 2577 1125)"/><path d="M85.3126 30.4688C85.3126 32.7125 83.4938 34.5313 81.2501 34.5313 79.0064 34.5313 77.1876 32.7125 77.1876 30.4688 77.1876 28.2251 79.0064 26.4063 81.2501 26.4063 83.4938 26.4063 85.3126 28.2251 85.3126 30.4688Z" transform="matrix(-1.00513 1.23093e-16 -1.22465e-16 -1 2577 1125)"/><path d="M71.0938 24.375C71.0938 26.6187 69.275 28.4375 67.0313 28.4375 64.7877 28.4375 62.9688 26.6187 62.9688 24.375 62.9688 22.1314 64.7877 20.3125 67.0313 20.3125 69.275 20.3125 71.0938 22.1314 71.0938 24.375Z" transform="matrix(-1.00513 1.23093e-16 -1.22465e-16 -1 2577 1125)"/><path d="M40.6251 97.5001C40.6251 99.7438 38.8062 101.563 36.5625 101.563 34.3189 101.563 32.5 99.7438 32.5 97.5001 32.5 95.2565 34.3189 93.4376 36.5625 93.4376 38.8062 93.4376 40.6251 95.2565 40.6251 97.5001Z" transform="matrix(-1.00513 1.23093e-16 -1.22465e-16 -1 2577 1125)"/></g></g></g></g></svg>