<svg width="153" height="129" xmlns="http://www.w3.org/2000/svg" xmlns:xlink="http://www.w3.org/1999/xlink" xml:space="preserve" overflow="hidden"><defs><clipPath id="clip0"><rect x="1318" y="46" width="153" height="129"/></clipPath></defs><g clip-path="url(#clip0)" transform="translate(-1318 -46)"><path d="M1371 51C1371 48.2386 1373.24 46.0001 1376 46.0001 1378.76 46.0001 1381 48.2386 1381 51 1381 53.7615 1378.76 56 1376 56 1373.24 56 1371 53.7615 1371 51Z" fill="#4472C4" fill-rule="evenodd"/><path d="M1413 51C1413 48.2386 1415.24 46.0001 1418 46.0001 1420.76 46.0001 1423 48.2386 1423 51 1423 53.7615 1420.76 56 1418 56 1415.24 56 1413 53.7615 1413 51Z" fill="#4472C4" fill-rule="evenodd"/><path d="M1318 89.9999C1318 87.2385 1320.24 84.9999 1323 84.9999 1325.76 84.9999 1328 87.2385 1328 89.9999 1328 92.7613 1325.76 94.9999 1323 94.9999 1320.24 94.9999 1318 92.7613 1318 89.9999Z" fill="#4472C4" fill-rule="evenodd"/><path d="M1351 89.9999C1351 87.2385 1353.24 84.9999 1356 84.9999 1358.76 84.9999 1361 87.2385 1361 89.9999 1361 92.7613 1358.76 94.9999 1356 94.9999 1353.24 94.9999 1351 92.7613 1351 89.9999Z" fill="#4472C4" fill-rule="evenodd"/><path d="M1392 89.9999C1392 87.2385 1394.01 84.9999 1396.5 84.9999 1398.99 84.9999 1401 87.2385 1401 89.9999 1401 92.7613 1398.99 94.9999 1396.5 94.9999 1394.01 94.9999 1392 92.7613 1392 89.9999Z" fill="#4472C4" fill-rule="evenodd"/><path d="M1438 89.9999C1438 87.2385 1440.24 84.9999 1443 84.9999 1445.76 84.9999 1448 87.2385 1448 89.9999 1448 92.7613 1445.76 94.9999 1443 94.9999 1440.24 94.9999 1438 92.7613 1438 89.9999Z" fill="#4472C4" fill-rule="evenodd"/><path d="M1372 126C1372 123.239 1374.24 121 1377 121 1379.76 121 1382 123.239 1382 126 1382 128.761 1379.76 131 1377 131 1374.24 131 1372 128.761 1372 126Z" fill="#4472C4" fill-rule="evenodd"/><path d="M1413 126C1413 123.239 1415.24 121 1418 121 1420.76 121 1423 123.239 1423 126 1423 128.761 1420.76 131 1418 131 1415.24 131 1413 128.761 1413 126Z" fill="#4472C4" fill-rule="evenodd"/><path d="M1461 126C1461 123.239 1463.24 121 1466 121 1468.76 121 1471 123.239 1471 126 1471 128.761 1468.76 131 1466 131 1463.24 131 1461 128.761 1461 126Z" fill="#4472C4" fill-rule="evenodd"/><path d="M1438 170.5C1438 168.015 1440.24 166 1443 166 1445.76 166 1448 168.015 1448 170.5 1448 172.985 1445.76 175 1443 175 1440.24 175 1438 172.985 1438 170.5Z" fill="#4472C4" fill-rule="evenodd"/><path d="M1334 126C1334 123.239 1336.24 121 1339 121 1341.76 121 1344 123.239 1344 126 1344 128.761 1341.76 131 1339 131 1336.24 131 1334 128.761 1334 126Z" fill="#4472C4" fill-rule="evenodd"/></g></svg>