<svg width="302" height="255" xmlns="http://www.w3.org/2000/svg" xmlns:xlink="http://www.w3.org/1999/xlink" xml:space="preserve" overflow="hidden"><defs><clipPath id="clip0"><rect x="1316" y="44" width="302" height="255"/></clipPath></defs><g clip-path="url(#clip0)" transform="translate(-1316 -44)"><path d="M1417.5 62.9999C1417.5 53.8872 1424.89 46.4999 1434 46.4999 1443.11 46.4999 1450.5 53.8872 1450.5 62.9999 1450.5 72.1126 1443.11 79.4999 1434 79.4999 1424.89 79.4999 1417.5 72.1126 1417.5 62.9999Z" stroke="#2F528F" stroke-width="4.58333" stroke-miterlimit="8" fill="#4472C4" fill-rule="evenodd"/><path d="M1494.5 62.9999C1494.5 53.8872 1501.89 46.4999 1511 46.4999 1520.11 46.4999 1527.5 53.8872 1527.5 62.9999 1527.5 72.1126 1520.11 79.4999 1511 79.4999 1501.89 79.4999 1494.5 72.1126 1494.5 62.9999Z" stroke="#2F528F" stroke-width="4.58333" stroke-miterlimit="8" fill="#4472C4" fill-rule="evenodd"/><path d="M1318.5 134C1318.5 124.887 1325.89 117.5 1335 117.5 1344.11 117.5 1351.5 124.887 1351.5 134 1351.5 143.113 1344.11 150.5 1335 150.5 1325.89 150.5 1318.5 143.113 1318.5 134Z" stroke="#2F528F" stroke-width="4.58333" stroke-miterlimit="8" fill="#4472C4" fill-rule="evenodd"/><path d="M1380.5 134C1380.5 124.887 1387.89 117.5 1397 117.5 1406.11 117.5 1413.5 124.887 1413.5 134 1413.5 143.113 1406.11 150.5 1397 150.5 1387.89 150.5 1380.5 143.113 1380.5 134Z" stroke="#2F528F" stroke-width="4.58333" stroke-miterlimit="8" fill="#4472C4" fill-rule="evenodd"/><path d="M1454.5 134C1454.5 124.887 1461.89 117.5 1471 117.5 1480.11 117.5 1487.5 124.887 1487.5 134 1487.5 143.113 1480.11 150.5 1471 150.5 1461.89 150.5 1454.5 143.113 1454.5 134Z" stroke="#2F528F" stroke-width="4.58333" stroke-miterlimit="8" fill="#4472C4" fill-rule="evenodd"/><path d="M1540.5 134C1540.5 124.887 1547.89 117.5 1557 117.5 1566.11 117.5 1573.5 124.887 1573.5 134 1573.5 143.113 1566.11 150.5 1557 150.5 1547.89 150.5 1540.5 143.113 1540.5 134Z" stroke="#2F528F" stroke-width="4.58333" stroke-miterlimit="8" fill="#4472C4" fill-rule="evenodd"/><path d="M1418.5 199C1418.5 189.887 1425.89 182.5 1435 182.5 1444.11 182.5 1451.5 189.887 1451.5 199 1451.5 208.113 1444.11 215.5 1435 215.5 1425.89 215.5 1418.5 208.113 1418.5 199Z" stroke="#2F528F" stroke-width="4.58333" stroke-miterlimit="8" fill="#4472C4" fill-rule="evenodd"/><path d="M1494.5 199C1494.5 189.887 1501.89 182.5 1511 182.5 1520.11 182.5 1527.5 189.887 1527.5 199 1527.5 208.113 1520.11 215.5 1511 215.5 1501.89 215.5 1494.5 208.113 1494.5 199Z" stroke="#2F528F" stroke-width="4.58333" stroke-miterlimit="8" fill="#4472C4" fill-rule="evenodd"/><path d="M1582.5 199C1582.5 189.887 1589.89 182.5 1599 182.5 1608.11 182.5 1615.5 189.887 1615.5 199 1615.5 208.113 1608.11 215.5 1599 215.5 1589.89 215.5 1582.5 208.113 1582.5 199Z" stroke="#2F528F" stroke-width="4.58333" stroke-miterlimit="8" fill="#4472C4" fill-rule="evenodd"/><path d="M1540.5 280C1540.5 270.887 1547.89 263.5 1557 263.5 1566.11 263.5 1573.5 270.887 1573.5 280 1573.5 289.113 1566.11 296.5 1557 296.5 1547.89 296.5 1540.5 289.113 1540.5 280Z" stroke="#2F528F" stroke-width="4.58333" stroke-miterlimit="8" fill="#4472C4" fill-rule="evenodd"/><path d="M1348.5 199C1348.5 189.887 1355.89 182.5 1365 182.5 1374.11 182.5 1381.5 189.887 1381.5 199 1381.5 208.113 1374.11 215.5 1365 215.5 1355.89 215.5 1348.5 208.113 1348.5 199Z" stroke="#2F528F" stroke-width="4.58333" stroke-miterlimit="8" fill="#4472C4" fill-rule="evenodd"/></g></svg>