<svg width="417" height="311" xmlns="http://www.w3.org/2000/svg" xmlns:xlink="http://www.w3.org/1999/xlink" xml:space="preserve" overflow="hidden"><defs><clipPath id="clip0"><rect x="1527" y="938" width="417" height="311"/></clipPath></defs><g clip-path="url(#clip0)" transform="translate(-1527 -938)"><path d="M0 0 76.2829 27.4989" stroke="#CC3300" stroke-width="36.6667" stroke-miterlimit="8" fill="none" fill-rule="evenodd" transform="matrix(1 0 0 -1 1614.5 990.999)"/><path d="M0 0 37.0294 60.4509" stroke="#CC3300" stroke-width="36.6667" stroke-miterlimit="8" fill="none" fill-rule="evenodd" transform="matrix(1 0 0 -1 1563.5 1056.95)"/><path d="M1612.5 996.5 1659.77 1034.76" stroke="#CC3300" stroke-width="55" stroke-miterlimit="8" fill="none" fill-rule="evenodd"/><path d="M0 0 27.9973 63.263" stroke="#CC3300" stroke-width="36.6667" stroke-miterlimit="8" fill="none" fill-rule="evenodd" transform="matrix(1 0 0 -1 1671.5 1034.76)"/><path d="M0 0 48.7797 57.1841" stroke="#CC3300" stroke-width="36.6667" stroke-miterlimit="8" fill="none" fill-rule="evenodd" transform="matrix(1 0 0 -1 1768.5 1026.68)"/><path d="M1705.5 969.5 1757.49 1027.18" stroke="#CC3300" stroke-width="36.6667" stroke-miterlimit="8" fill="none" fill-rule="evenodd"/><path d="M0 0 81.0012 8.07785" stroke="#CC3300" stroke-width="36.6667" stroke-miterlimit="8" fill="none" fill-rule="evenodd" transform="matrix(1 0 0 -1 1673.5 1041.58)"/><path d="M0 0 27.3737 64.5618" stroke="#CC3300" stroke-width="36.6667" stroke-miterlimit="8" fill="none" fill-rule="evenodd" transform="matrix(-1 0 0 1 1658.87 1047.5)"/><path d="M1617.97 1117.89 1563.5 1069.5" stroke="#CC3300" stroke-width="36.6667" stroke-miterlimit="8" fill="none" fill-rule="evenodd"/><path d="M0 0 91.2354 22.1916" stroke="#CC3300" stroke-width="36.6667" stroke-miterlimit="8" fill="none" fill-rule="evenodd" transform="matrix(-1 0 0 1 1656.74 1041.5)"/><path d="M1709.84 1112.68 1671.5 1047.5" stroke="#CC3300" stroke-width="36.6667" stroke-miterlimit="8" fill="none" fill-rule="evenodd"/><path d="M1707.15 1118.12 1634.5 1117.5" stroke="#CC3300" stroke-width="36.6667" stroke-miterlimit="8" fill="none" fill-rule="evenodd"/><path d="M1811.99 1154.48 1721.5 1124.5" stroke="#CC3300" stroke-width="36.6667" stroke-miterlimit="8" fill="none" fill-rule="evenodd"/><path d="M1854.38 1216.96 1823.5 1166.5" stroke="#CC3300" stroke-width="36.6667" stroke-miterlimit="8" fill="none" fill-rule="evenodd"/><path d="M0 0 47.5573 104.975" stroke="#CC3300" stroke-width="36.6667" stroke-miterlimit="8" fill="none" fill-rule="evenodd" transform="matrix(-1 0 0 1 1914.06 1111.5)"/><path d="M1905.31 1103.83 1827.5 1091.5" stroke="#CC3300" stroke-width="36.6667" stroke-miterlimit="8" fill="none" fill-rule="evenodd"/><path d="M0 0 87.2335 27.3221" stroke="#CC3300" stroke-width="36.6667" stroke-miterlimit="8" fill="none" fill-rule="evenodd" transform="matrix(-1 0 0 1 1810.73 1091.5)"/><path d="M0 0 1.64423 52.3088" stroke="#CC3300" stroke-width="36.6667" stroke-miterlimit="8" fill="none" fill-rule="evenodd" transform="matrix(-1 0 0 1 1819.14 1099.5)"/><path d="M0 0 84.3557 44.9639" stroke="#CC3300" stroke-width="36.6667" stroke-miterlimit="8" fill="none" fill-rule="evenodd" transform="matrix(-1 0 0 1 1907.86 1109.5)"/><path d="M1914.2 1094.45 1886.5 1037.5" stroke="#CC3300" stroke-width="36.6667" stroke-miterlimit="8" fill="none" fill-rule="evenodd"/><path d="M1874.38 1025.5 1829.5 969.5" stroke="#CC3300" stroke-width="36.6667" stroke-miterlimit="8" fill="none" fill-rule="evenodd"/><path d="M0 0 100.599 1.1812" stroke="#CC3300" stroke-width="36.6667" stroke-miterlimit="8" fill="none" fill-rule="evenodd" transform="matrix(-1 0 0 1 1872.1 1031.5)"/><path d="M1813.07 1085.43 1768.5 1039.5" stroke="#CC3300" stroke-width="36.6667" stroke-miterlimit="8" fill="none" fill-rule="evenodd"/><path d="M0 0 49.0879 47.1152" stroke="#CC3300" stroke-width="36.6667" stroke-miterlimit="8" fill="none" fill-rule="evenodd" transform="matrix(1 0 0 -1 1825.5 1084.62)"/><path d="M0 0 35.7226 73.2557" stroke="#CC3300" stroke-width="36.6667" stroke-miterlimit="8" fill="none" fill-rule="evenodd" transform="matrix(-1 0 0 1 1757.22 1039.5)"/><path d="M1681.5 963.5 1689 948.5 1709 948.5 1716.5 963.5 1709 978.5 1689 978.5Z" stroke="#FFFFFF" stroke-width="20.625" stroke-miterlimit="8" fill="#CC3300" fill-rule="evenodd"/><path d="M1690 962.5C1690 957.805 1693.81 954 1698.5 954 1703.19 954 1707 957.805 1707 962.5 1707 967.194 1703.19 971 1698.5 971 1693.81 971 1690 967.194 1690 962.5Z" fill="#CC3300" fill-rule="evenodd"/><path d="M1806.5 963.5 1814 948.5 1833 948.5 1840.5 963.5 1833 978.5 1814 978.5Z" stroke="#FFFFFF" stroke-width="20.625" stroke-miterlimit="8" fill="#CC3300" fill-rule="evenodd"/><path d="M1815 963.5C1815 958.806 1818.58 955 1823 955 1827.42 955 1831 958.806 1831 963.5 1831 968.195 1827.42 972 1823 972 1818.58 972 1815 968.195 1815 963.5Z" fill="#CC3300" fill-rule="evenodd"/><path d="M1588.5 990.5 1596 975.5 1616 975.5 1623.5 990.5 1616 1005.5 1596 1005.5Z" stroke="#FFFFFF" stroke-width="20.625" stroke-miterlimit="8" fill="#CC3300" fill-rule="evenodd"/><path d="M1597 990.5C1597 985.806 1600.81 982 1605.5 982 1610.19 982 1614 985.806 1614 990.5 1614 995.194 1610.19 999 1605.5 999 1600.81 999 1597 995.194 1597 990.5Z" fill="#CC3300" fill-rule="evenodd"/><path d="M1539.5 1063.5 1547 1048.5 1567 1048.5 1574.5 1063.5 1567 1078.5 1547 1078.5Z" stroke="#FFFFFF" stroke-width="20.625" stroke-miterlimit="8" fill="#CC3300" fill-rule="evenodd"/><path d="M1548 1062.5C1548 1057.81 1551.81 1054 1556.5 1054 1561.19 1054 1565 1057.81 1565 1062.5 1565 1067.19 1561.19 1071 1556.5 1071 1551.81 1071 1548 1067.19 1548 1062.5Z" fill="#CC3300" fill-rule="evenodd"/><path d="M1647.5 1041 1655.25 1025.5 1674.75 1025.5 1682.5 1041 1674.75 1056.5 1655.25 1056.5Z" stroke="#FFFFFF" stroke-width="20.625" stroke-miterlimit="8" fill="#CC3300" fill-rule="evenodd"/><path d="M1656 1040.5C1656 1035.81 1659.81 1032 1664.5 1032 1669.19 1032 1673 1035.81 1673 1040.5 1673 1045.19 1669.19 1049 1664.5 1049 1659.81 1049 1656 1045.19 1656 1040.5Z" fill="#CC3300" fill-rule="evenodd"/><path d="M1863.5 1031.5 1871 1016.5 1890 1016.5 1897.5 1031.5 1890 1046.5 1871 1046.5Z" stroke="#FFFFFF" stroke-width="20.625" stroke-miterlimit="8" fill="#CC3300" fill-rule="evenodd"/><path d="M1871 1031.5C1871 1026.81 1874.81 1023 1879.5 1023 1884.19 1023 1888 1026.81 1888 1031.5 1888 1036.19 1884.19 1040 1879.5 1040 1874.81 1040 1871 1036.19 1871 1031.5Z" fill="#CC3300" fill-rule="evenodd"/><path d="M1896.5 1103.5 1904 1088.5 1924 1088.5 1931.5 1103.5 1924 1118.5 1904 1118.5Z" stroke="#FFFFFF" stroke-width="20.625" stroke-miterlimit="8" fill="#CC3300" fill-rule="evenodd"/><path d="M1905 1102.5C1905 1097.81 1908.81 1094 1913.5 1094 1918.19 1094 1922 1097.81 1922 1102.5 1922 1107.19 1918.19 1111 1913.5 1111 1908.81 1111 1905 1107.19 1905 1102.5Z" fill="#CC3300" fill-rule="evenodd"/><path d="M1802.5 1091 1810.25 1075.5 1828.75 1075.5 1836.5 1091 1828.75 1106.5 1810.25 1106.5Z" stroke="#FFFFFF" stroke-width="20.625" stroke-miterlimit="8" fill="#CC3300" fill-rule="evenodd"/><path d="M1811 1090.5C1811 1085.81 1814.58 1082 1819 1082 1823.42 1082 1827 1085.81 1827 1090.5 1827 1095.19 1823.42 1099 1819 1099 1814.58 1099 1811 1095.19 1811 1090.5Z" fill="#CC3300" fill-rule="evenodd"/><path d="M1698.5 1118.5 1706 1103.5 1725 1103.5 1732.5 1118.5 1725 1133.5 1706 1133.5Z" stroke="#FFFFFF" stroke-width="20.625" stroke-miterlimit="8" fill="#CC3300" fill-rule="evenodd"/><path d="M1707 1117.5C1707 1112.81 1710.58 1109 1715 1109 1719.42 1109 1723 1112.81 1723 1117.5 1723 1122.19 1719.42 1126 1715 1126 1710.58 1126 1707 1122.19 1707 1117.5Z" fill="#CC3300" fill-rule="evenodd"/><path d="M1608.5 1117.5 1616 1102.5 1636 1102.5 1643.5 1117.5 1636 1132.5 1616 1132.5Z" stroke="#FFFFFF" stroke-width="20.625" stroke-miterlimit="8" fill="#CC3300" fill-rule="evenodd"/><path d="M1617 1117.5C1617 1112.81 1620.81 1109 1625.5 1109 1630.19 1109 1634 1112.81 1634 1117.5 1634 1122.19 1630.19 1126 1625.5 1126 1620.81 1126 1617 1122.19 1617 1117.5Z" fill="#CC3300" fill-rule="evenodd"/><path d="M1800.5 1160.5 1808 1145.5 1827 1145.5 1834.5 1160.5 1827 1175.5 1808 1175.5Z" stroke="#FFFFFF" stroke-width="20.625" stroke-miterlimit="8" fill="#CC3300" fill-rule="evenodd"/><path d="M1809 1159.5C1809 1154.81 1812.81 1151 1817.5 1151 1822.19 1151 1826 1154.81 1826 1159.5 1826 1164.19 1822.19 1168 1817.5 1168 1812.81 1168 1809 1164.19 1809 1159.5Z" fill="#CC3300" fill-rule="evenodd"/><path d="M1843.5 1223 1851.25 1207.5 1869.75 1207.5 1877.5 1223 1869.75 1238.5 1851.25 1238.5Z" stroke="#FFFFFF" stroke-width="20.625" stroke-miterlimit="8" fill="#CC3300" fill-rule="evenodd"/><path d="M1852 1222.5C1852 1217.81 1855.58 1214 1860 1214 1864.42 1214 1868 1217.81 1868 1222.5 1868 1227.19 1864.42 1231 1860 1231 1855.58 1231 1852 1227.19 1852 1222.5Z" fill="#CC3300" fill-rule="evenodd"/><path d="M1745.5 1033 1753.25 1017.5 1772.75 1017.5 1780.5 1033 1772.75 1048.5 1753.25 1048.5Z" stroke="#FFFFFF" stroke-width="20.625" stroke-miterlimit="8" fill="#CC3300" fill-rule="evenodd"/><path d="M1754 1032.5C1754 1027.81 1757.81 1024 1762.5 1024 1767.19 1024 1771 1027.81 1771 1032.5 1771 1037.19 1767.19 1041 1762.5 1041 1757.81 1041 1754 1037.19 1754 1032.5Z" fill="#CC3300" fill-rule="evenodd"/></g></svg>