<svg width="76" height="72" xmlns="http://www.w3.org/2000/svg" xmlns:xlink="http://www.w3.org/1999/xlink" xml:space="preserve" overflow="hidden"><defs><clipPath id="clip0"><rect x="107" y="91" width="76" height="72"/></clipPath><clipPath id="clip1"><path d="M154.475 110.785 140.575 113.325 138.036 99.4247 151.936 96.8854Z" fill-rule="evenodd" clip-rule="evenodd"/></clipPath><clipPath id="clip2"><path d="M154.475 110.785 140.575 113.325 138.036 99.4247 151.936 96.8854Z" fill-rule="evenodd" clip-rule="evenodd"/></clipPath><clipPath id="clip3"><path d="M154.475 110.785 140.575 113.325 138.036 99.4247 151.936 96.8854Z" fill-rule="evenodd" clip-rule="evenodd"/></clipPath></defs><g clip-path="url(#clip0)" transform="translate(-107 -91)"><g clip-path="url(#clip1)"><g clip-path="url(#clip2)"><g clip-path="url(#clip3)"><path d="M10.2781 4.68498 6.59843 8.36468C6.48792 8.47507 6.33808 8.53701 6.18188 8.53689 6.13208 8.5359 6.08261 8.52848 6.0347 8.51481L0.796286 13.7488C0.672799 13.8546 0.486966 13.8402 0.381216 13.7167 0.286836 13.6065 0.286836 13.4439 0.381216 13.3337L5.61521 8.09532C5.56022 7.89369 5.61624 7.67803 5.7624 7.52865L9.44209 3.84896C9.67215 3.6189 10.0451 3.6189 10.2752 3.84896 10.5052 4.07901 10.5052 4.45199 10.2752 4.68204Z" fill="#FFC000" transform="matrix(-0.983746 0.179709 -0.179704 -0.983721 154.475 110.785)"/><path d="M10.156 6.77063C9.99337 6.77063 9.86158 6.90243 9.86158 7.06501L9.86158 9.12564C9.86158 9.28822 9.99337 9.42001 10.156 9.42001 10.3185 9.42001 10.4503 9.28822 10.4503 9.12564L10.4503 7.06501C10.4503 6.90243 10.3185 6.77063 10.156 6.77063Z" fill="#FFC000" transform="matrix(-0.983746 0.179709 -0.179704 -0.983721 154.475 110.785)"/><path d="M11.4806 4.26844 13.5413 4.26844C13.7039 4.26844 13.8356 4.13665 13.8356 3.97407 13.8356 3.81148 13.7039 3.67969 13.5413 3.67969L11.4806 3.67969C11.3181 3.67969 11.1863 3.81148 11.1863 3.97407 11.1863 4.13665 11.3181 4.26844 11.4806 4.26844Z" fill="#FFC000" transform="matrix(-0.983746 0.179709 -0.179704 -0.983721 154.475 110.785)"/><path d="M4.12126 6.77063C4.1601 6.77056 4.19856 6.76307 4.23459 6.74856L6.88397 5.64465C7.03435 5.58205 7.10553 5.4094 7.04293 5.25902 6.98033 5.10864 6.80768 5.03746 6.6573 5.10005L4.00792 6.20396C3.85754 6.26574 3.7857 6.43773 3.84746 6.58811 3.89303 6.69904 4.00133 6.77124 4.12126 6.77063Z" fill="#FFC000" transform="matrix(-0.983746 0.179709 -0.179704 -0.983721 154.475 110.785)"/><path d="M6.47626 4.26844 8.09532 4.26844C8.25791 4.26844 8.3897 4.13665 8.3897 3.97407 8.3897 3.81148 8.25791 3.67969 8.09532 3.67969L6.47626 3.67969C6.31368 3.67969 6.18188 3.81148 6.18188 3.97407 6.18188 4.13665 6.31368 4.26844 6.47626 4.26844Z" fill="#FFC000" transform="matrix(-0.983746 0.179709 -0.179704 -0.983721 154.475 110.785)"/><path d="M4.71001 4.26844 5.44595 4.26844C5.60853 4.26844 5.74032 4.13665 5.74032 3.97407 5.74032 3.81148 5.60853 3.67969 5.44595 3.67969L4.71001 3.67969C4.54742 3.67969 4.41563 3.81148 4.41563 3.97407 4.41563 4.13665 4.54742 4.26844 4.71001 4.26844Z" fill="#FFC000" transform="matrix(-0.983746 0.179709 -0.179704 -0.983721 154.475 110.785)"/><path d="M10.156 2.94375C10.3185 2.94375 10.4503 2.81196 10.4503 2.64938L10.4503 2.06063C10.4503 1.89804 10.3185 1.76625 10.156 1.76625 9.99337 1.76625 9.86158 1.89804 9.86158 2.06063L9.86158 2.64938C9.86158 2.81196 9.99337 2.94375 10.156 2.94375Z" fill="#FFC000" transform="matrix(-0.983746 0.179709 -0.179704 -0.983721 154.475 110.785)"/><path d="M10.156 1.32469C10.3185 1.32469 10.4503 1.19289 10.4503 1.03031L10.4503 0.588751C10.4503 0.426172 10.3185 0.294375 10.156 0.294375 9.99337 0.294375 9.86158 0.426172 9.86158 0.588751L9.86158 1.03031C9.86158 1.19289 9.99337 1.32469 10.156 1.32469Z" fill="#FFC000" transform="matrix(-0.983746 0.179709 -0.179704 -0.983721 154.475 110.785)"/><path d="M12.143 2.28141C12.2209 2.28109 12.2956 2.24985 12.3505 2.19457L13.0865 1.45863C13.1922 1.33514 13.1778 1.14931 13.0543 1.04356 12.9441 0.949181 12.7816 0.949181 12.6714 1.04356L11.9355 1.7795C11.8208 1.89481 11.8214 2.08119 11.9367 2.19581 11.9915 2.25034 12.0656 2.28109 12.143 2.28141Z" fill="#FFC000" transform="matrix(-0.983746 0.179709 -0.179704 -0.983721 154.475 110.785)"/><path d="M12.6964 2.59639C12.5452 2.65615 12.4711 2.82717 12.5308 2.97836 12.5753 3.09096 12.6843 3.16483 12.8053 3.16454 12.8426 3.16426 12.8795 3.15728 12.9142 3.14393L13.2822 2.99674C13.4334 2.93659 13.5072 2.76526 13.4471 2.61405 13.3869 2.46285 13.2156 2.38905 13.0644 2.4492Z" fill="#FFC000" transform="matrix(-0.983746 0.179709 -0.179704 -0.983721 154.475 110.785)"/><path d="M12.5713 5.97435C12.4478 5.86859 12.262 5.88298 12.1562 6.00647 12.0619 6.11666 12.0619 6.2792 12.1562 6.38942L13.3337 7.56692C13.4572 7.67267 13.643 7.65829 13.7488 7.5348 13.8432 7.4246 13.8432 7.26206 13.7488 7.15185Z" fill="#FFC000" transform="matrix(-0.983746 0.179709 -0.179704 -0.983721 154.475 110.785)"/><path d="M11.6882 5.09122 11.3938 4.79685C11.2703 4.69109 11.0845 4.70547 10.9787 4.82896 10.8844 4.93916 10.8844 5.1017 10.9787 5.21192L11.2731 5.50629C11.3966 5.61205 11.5824 5.59767 11.6882 5.47418 11.7826 5.36398 11.7826 5.20144 11.6882 5.09122Z" fill="#FFC000" transform="matrix(-0.983746 0.179709 -0.179704 -0.983721 154.475 110.785)"/><path d="M8.97845 2.50219C8.97845 2.66477 8.84665 2.79657 8.68407 2.79657 8.5215 2.79657 8.3897 2.66477 8.3897 2.50219 8.3897 2.33961 8.5215 2.20782 8.68407 2.20782 8.84665 2.20782 8.97845 2.33961 8.97845 2.50219Z" fill="#FFC000" transform="matrix(-0.983746 0.179709 -0.179704 -0.983721 154.475 110.785)"/><path d="M7.8142 2.04738C7.93769 2.15314 8.12351 2.13876 8.22927 2.01526 8.32364 1.90507 8.32364 1.74253 8.22927 1.63231L7.12536 0.528404C7.00187 0.422654 6.81604 0.437031 6.71029 0.560516 6.61591 0.670724 6.61591 0.833265 6.71029 0.943473Z" fill="#FFC000" transform="matrix(-0.983746 0.179709 -0.179704 -0.983721 154.475 110.785)"/><path d="M10.4503 5.88751C10.4503 6.05009 10.3185 6.18188 10.156 6.18188 9.99337 6.18188 9.86158 6.05009 9.86158 5.88751 9.86158 5.72493 9.99337 5.59313 10.156 5.59313 10.3185 5.59313 10.4503 5.72493 10.4503 5.88751Z" fill="#FFC000" transform="matrix(-0.983746 0.179709 -0.179704 -0.983721 154.475 110.785)"/><path d="M12.2166 8.24251C12.2166 8.40509 12.0848 8.53689 11.9222 8.53689 11.7596 8.53689 11.6278 8.40509 11.6278 8.24251 11.6278 8.07993 11.7596 7.94814 11.9222 7.94814 12.0848 7.94814 12.2166 8.07993 12.2166 8.24251Z" fill="#FFC000" transform="matrix(-0.983746 0.179709 -0.179704 -0.983721 154.475 110.785)"/><path d="M6.18188 2.20782C6.18188 2.37039 6.05009 2.50219 5.88751 2.50219 5.72493 2.50219 5.59313 2.37039 5.59313 2.20782 5.59313 2.04524 5.72493 1.91344 5.88751 1.91344 6.05009 1.91344 6.18188 2.04524 6.18188 2.20782Z" fill="#FFC000" transform="matrix(-0.983746 0.179709 -0.179704 -0.983721 154.475 110.785)"/><path d="M5.15157 1.76625C5.15157 1.92883 5.01977 2.06063 4.85719 2.06063 4.69462 2.06063 4.56282 1.92883 4.56282 1.76625 4.56282 1.60367 4.69462 1.47188 4.85719 1.47188 5.01977 1.47188 5.15157 1.60367 5.15157 1.76625Z" fill="#FFC000" transform="matrix(-0.983746 0.179709 -0.179704 -0.983721 154.475 110.785)"/><path d="M2.94375 7.06501C2.94375 7.22759 2.81196 7.35939 2.64938 7.35939 2.4868 7.35939 2.355 7.22759 2.355 7.06501 2.355 6.90243 2.4868 6.77063 2.64938 6.77063 2.81196 6.77063 2.94375 6.90243 2.94375 7.06501Z" fill="#FFC000" transform="matrix(-0.983746 0.179709 -0.179704 -0.983721 154.475 110.785)"/></g></g></g><path d="M147.806 103.371C145.431 101.812 144.769 98.6232 146.327 96.2479L146.327 96.2479C147.886 93.8726 151.075 93.2106 153.45 94.7692L174.429 108.535C176.805 110.094 177.467 113.283 175.908 115.658L175.908 115.658C174.35 118.033 171.161 118.695 168.785 117.137Z" fill="#4472C4" fill-rule="evenodd"/><path d="M139.889 144.346 169.686 106.512 176.636 111.072 153.788 153.467Z" fill="#2E75B6" fill-rule="evenodd"/><path d="M162.218 106.995C165.338 102.24 171.744 100.929 176.527 104.067 181.309 107.205 182.656 113.603 179.536 118.359 176.416 123.114 170.01 124.425 165.227 121.287 160.445 118.149 159.098 111.75 162.218 106.995ZM169.967 112.079C169.655 112.555 169.809 113.208 170.312 113.538 170.815 113.868 171.475 113.749 171.787 113.274 172.099 112.798 171.945 112.146 171.442 111.816 170.939 111.486 170.279 111.604 169.967 112.079Z" stroke="#F2F2F2" stroke-width="3.4375" stroke-miterlimit="8" fill="#4472C4" fill-rule="evenodd"/><path d="M145.073 97.8C145.595 94.9399 148.337 93.0448 151.198 93.5673 154.058 94.0898 155.953 96.832 155.43 99.6922 154.908 102.552 152.166 104.447 149.306 103.925 146.445 103.402 144.55 100.66 145.073 97.8Z" stroke="#F2F2F2" stroke-width="3.4375" stroke-miterlimit="8" fill="none" fill-rule="evenodd"/><path d="M137.5 161.5 137.5 151.5C137.5 145.977 142.201 141.5 148 141.5 153.799 141.5 158.5 145.977 158.5 151.5L158.5 161.5Z" stroke="#F2F2F2" stroke-width="3.4375" stroke-miterlimit="8" fill="#4472C4" fill-rule="evenodd"/><path d="M126.884 119.011 135.254 110.607 145.136 118.019Z" stroke="#F2F2F2" stroke-width="2.29167" stroke-miterlimit="8" fill="#2E75B6" fill-rule="evenodd"/><path d="M117.727 113.066 109 124.289 132.352 125.115 140.231 137 148 127.09 145.31 117.566 127.738 118.458 135.682 110 117.727 113.066Z" stroke="#F2F2F2" stroke-width="2.29167" stroke-miterlimit="8" fill="#FF0000" fill-rule="evenodd"/><path d="M117 113 127.016 118.395" stroke="#F2F2F2" stroke-width="2.29167" stroke-miterlimit="8" fill="none" fill-rule="evenodd"/><path d="M0 0 18.7484 5.83491" stroke="#F2F2F2" stroke-width="2.29167" stroke-miterlimit="8" fill="none" fill-rule="evenodd" transform="matrix(1 0 0 -1 109 124.835)"/><path d="M127 119 131.616 125.661" stroke="#F2F2F2" stroke-width="2.29167" stroke-miterlimit="8" fill="none" fill-rule="evenodd"/><path d="M0 0 12.9658 7.5542" stroke="#F2F2F2" stroke-width="2.29167" stroke-miterlimit="8" fill="none" fill-rule="evenodd" transform="matrix(1 0 0 -1 132 125.554)"/><path d="M132 125 147.658 126.976" stroke="#F2F2F2" stroke-width="2.29167" stroke-miterlimit="8" fill="none" fill-rule="evenodd"/><path d="M135 110 144.633 117.57" stroke="#F2F2F2" stroke-width="2.29167" stroke-miterlimit="8" fill="none" fill-rule="evenodd"/></g></svg>