<svg width="99" height="63" xmlns="http://www.w3.org/2000/svg" xmlns:xlink="http://www.w3.org/1999/xlink" xml:space="preserve" overflow="hidden"><defs><clipPath id="clip0"><rect x="2617" y="1088" width="99" height="63"/></clipPath><clipPath id="clip1"><path d="M2677.31 1110.1 2664.96 1112.18 2662.88 1099.83 2675.23 1097.74Z" fill-rule="evenodd" clip-rule="evenodd"/></clipPath><clipPath id="clip2"><path d="M2677.31 1110.1 2664.96 1112.18 2662.88 1099.83 2675.23 1097.74Z" fill-rule="evenodd" clip-rule="evenodd"/></clipPath><clipPath id="clip3"><path d="M2677.31 1110.1 2664.96 1112.18 2662.88 1099.83 2675.23 1097.74Z" fill-rule="evenodd" clip-rule="evenodd"/></clipPath></defs><g clip-path="url(#clip0)" transform="translate(-2617 -1088)"><g clip-path="url(#clip1)"><g clip-path="url(#clip2)"><g clip-path="url(#clip3)"><path d="M9.11283 4.15382 5.85032 7.41633C5.75234 7.5142 5.61949 7.56912 5.48101 7.56901 5.43685 7.56814 5.39299 7.56156 5.35051 7.54944L0.706006 12.19C0.59652 12.2838 0.431756 12.271 0.337995 12.1615 0.254316 12.0638 0.254316 11.9197 0.337995 11.822L4.97858 7.17751C4.92983 6.99874 4.9795 6.80753 5.10908 6.67509L8.37159 3.41258C8.57556 3.20861 8.90625 3.20861 9.11022 3.41258 9.31419 3.61655 9.31419 3.94724 9.11022 4.15121Z" fill="#FFFF00" transform="matrix(-0.986071 0.166496 -0.166492 -0.986043 2677.31 1110.1)"/><path d="M9.00451 6.00301C8.86036 6.00301 8.74351 6.11986 8.74351 6.26401L8.74351 8.09101C8.74351 8.23516 8.86036 8.35201 9.00451 8.35201 9.14866 8.35201 9.26551 8.23516 9.26551 8.09101L9.26551 6.26401C9.26551 6.11986 9.14866 6.00301 9.00451 6.00301Z" fill="#FFFF00" transform="matrix(-0.986071 0.166496 -0.166492 -0.986043 2677.31 1110.1)"/><path d="M10.179 3.78451 12.006 3.78451C12.1502 3.78451 12.267 3.66766 12.267 3.52351 12.267 3.37935 12.1502 3.26251 12.006 3.26251L10.179 3.26251C10.0349 3.26251 9.91801 3.37935 9.91801 3.52351 9.91801 3.66766 10.0349 3.78451 10.179 3.78451Z" fill="#FFFF00" transform="matrix(-0.986071 0.166496 -0.166492 -0.986043 2677.31 1110.1)"/><path d="M3.65401 6.00301C3.68844 6.00294 3.72254 5.9963 3.75449 5.98343L6.10349 5.00468C6.23683 4.94918 6.29994 4.7961 6.24443 4.66277 6.18893 4.52944 6.03586 4.46633 5.90252 4.52183L3.55352 5.50058C3.42019 5.55535 3.35649 5.70784 3.41125 5.84118 3.45165 5.93953 3.54767 6.00354 3.65401 6.00301Z" fill="#FFFF00" transform="matrix(-0.986071 0.166496 -0.166492 -0.986043 2677.31 1110.1)"/><path d="M5.74201 3.78451 7.17751 3.78451C7.32166 3.78451 7.43851 3.66766 7.43851 3.52351 7.43851 3.37935 7.32166 3.26251 7.17751 3.26251L5.74201 3.26251C5.59786 3.26251 5.48101 3.37935 5.48101 3.52351 5.48101 3.66766 5.59786 3.78451 5.74201 3.78451Z" fill="#FFFF00" transform="matrix(-0.986071 0.166496 -0.166492 -0.986043 2677.31 1110.1)"/><path d="M4.17601 3.78451 4.82851 3.78451C4.97266 3.78451 5.08951 3.66766 5.08951 3.52351 5.08951 3.37935 4.97266 3.26251 4.82851 3.26251L4.17601 3.26251C4.03186 3.26251 3.91501 3.37935 3.91501 3.52351 3.91501 3.66766 4.03186 3.78451 4.17601 3.78451Z" fill="#FFFF00" transform="matrix(-0.986071 0.166496 -0.166492 -0.986043 2677.31 1110.1)"/><path d="M9.00451 2.61C9.14866 2.61 9.26551 2.49315 9.26551 2.349L9.26551 1.827C9.26551 1.68285 9.14866 1.566 9.00451 1.566 8.86036 1.566 8.74351 1.68285 8.74351 1.827L8.74351 2.349C8.74351 2.49315 8.86036 2.61 9.00451 2.61Z" fill="#FFFF00" transform="matrix(-0.986071 0.166496 -0.166492 -0.986043 2677.31 1110.1)"/><path d="M9.00451 1.1745C9.14866 1.1745 9.26551 1.05765 9.26551 0.913501L9.26551 0.522001C9.26551 0.377854 9.14866 0.261 9.00451 0.261 8.86036 0.261 8.74351 0.377854 8.74351 0.522001L8.74351 0.913501C8.74351 1.05765 8.86036 1.1745 9.00451 1.1745Z" fill="#FFFF00" transform="matrix(-0.986071 0.166496 -0.166492 -0.986043 2677.31 1110.1)"/><path d="M10.7663 2.02275C10.8354 2.02247 10.9016 1.99477 10.9503 1.94576L11.6028 1.29326C11.6965 1.18377 11.6838 1.01901 11.5743 0.925246 11.4766 0.841567 11.3325 0.841567 11.2348 0.925246L10.5823 1.57775C10.4806 1.67998 10.4811 1.84523 10.5834 1.94685 10.632 1.9952 10.6977 2.02247 10.7663 2.02275Z" fill="#FFFF00" transform="matrix(-0.986071 0.166496 -0.166492 -0.986043 2677.31 1110.1)"/><path d="M11.2569 2.30202C11.1229 2.35501 11.0572 2.50663 11.1101 2.64068 11.1496 2.74052 11.2462 2.80602 11.3535 2.80575 11.3865 2.80551 11.4193 2.79932 11.4501 2.78748L11.7763 2.65698C11.9104 2.60365 11.9758 2.45175 11.9225 2.31768 11.8692 2.18362 11.7172 2.11819 11.5832 2.17152Z" fill="#FFFF00" transform="matrix(-0.986071 0.166496 -0.166492 -0.986043 2677.31 1110.1)"/><path d="M11.146 5.297C11.0365 5.20324 10.8718 5.21599 10.778 5.32548 10.6943 5.42318 10.6943 5.5673 10.778 5.66501L11.822 6.70901C11.9315 6.80278 12.0963 6.79003 12.19 6.68054 12.2737 6.58283 12.2737 6.43872 12.19 6.341Z" fill="#FFFF00" transform="matrix(-0.986071 0.166496 -0.166492 -0.986043 2677.31 1110.1)"/><path d="M10.363 4.514 10.102 4.253C9.99253 4.15924 9.82777 4.17199 9.73401 4.28148 9.65033 4.37918 9.65033 4.52329 9.73401 4.62101L9.99501 4.88201C10.1045 4.97578 10.2693 4.96303 10.363 4.85354 10.4467 4.75583 10.4467 4.61172 10.363 4.514Z" fill="#FFFF00" transform="matrix(-0.986071 0.166496 -0.166492 -0.986043 2677.31 1110.1)"/><path d="M7.96051 2.2185C7.96051 2.36265 7.84366 2.4795 7.69951 2.4795 7.55537 2.4795 7.43851 2.36265 7.43851 2.2185 7.43851 2.07436 7.55537 1.9575 7.69951 1.9575 7.84366 1.9575 7.96051 2.07436 7.96051 2.2185Z" fill="#FFFF00" transform="matrix(-0.986071 0.166496 -0.166492 -0.986043 2677.31 1110.1)"/><path d="M6.92826 1.81526C7.03775 1.90902 7.2025 1.89627 7.29627 1.78678 7.37994 1.68908 7.37994 1.54497 7.29627 1.44725L6.31751 0.468496C6.20802 0.374735 6.04327 0.387482 5.9495 0.496967 5.86583 0.59468 5.86583 0.738793 5.9495 0.836506Z" fill="#FFFF00" transform="matrix(-0.986071 0.166496 -0.166492 -0.986043 2677.31 1110.1)"/><path d="M9.26551 5.22001C9.26551 5.36415 9.14866 5.48101 9.00451 5.48101 8.86037 5.48101 8.74351 5.36415 8.74351 5.22001 8.74351 5.07586 8.86037 4.95901 9.00451 4.95901 9.14866 4.95901 9.26551 5.07586 9.26551 5.22001Z" fill="#FFFF00" transform="matrix(-0.986071 0.166496 -0.166492 -0.986043 2677.31 1110.1)"/><path d="M10.8315 7.30801C10.8315 7.45216 10.7147 7.56901 10.5705 7.56901 10.4264 7.56901 10.3095 7.45216 10.3095 7.30801 10.3095 7.16386 10.4264 7.04701 10.5705 7.04701 10.7147 7.04701 10.8315 7.16386 10.8315 7.30801Z" fill="#FFFF00" transform="matrix(-0.986071 0.166496 -0.166492 -0.986043 2677.31 1110.1)"/><path d="M5.48101 1.9575C5.48101 2.10165 5.36415 2.2185 5.22001 2.2185 5.07586 2.2185 4.95901 2.10165 4.95901 1.9575 4.95901 1.81336 5.07586 1.6965 5.22001 1.6965 5.36415 1.6965 5.48101 1.81336 5.48101 1.9575Z" fill="#FFFF00" transform="matrix(-0.986071 0.166496 -0.166492 -0.986043 2677.31 1110.1)"/><path d="M4.56751 1.566C4.56751 1.71015 4.45065 1.827 4.30651 1.827 4.16236 1.827 4.04551 1.71015 4.04551 1.566 4.04551 1.42186 4.16236 1.305 4.30651 1.305 4.45065 1.305 4.56751 1.42186 4.56751 1.566Z" fill="#FFFF00" transform="matrix(-0.986071 0.166496 -0.166492 -0.986043 2677.31 1110.1)"/><path d="M2.61 6.26401C2.61 6.40816 2.49315 6.52501 2.349 6.52501 2.20486 6.52501 2.088 6.40816 2.088 6.26401 2.088 6.11986 2.20486 6.00301 2.349 6.00301 2.49315 6.00301 2.61 6.11986 2.61 6.26401Z" fill="#FFFF00" transform="matrix(-0.986071 0.166496 -0.166492 -0.986043 2677.31 1110.1)"/></g></g></g><path d="M2675.75 1099.18C2673.68 1098.29 2672.72 1095.9 2673.61 1093.83L2673.61 1093.83C2674.49 1091.76 2676.89 1090.8 2678.95 1091.69L2700.65 1100.97C2702.72 1101.86 2703.68 1104.25 2702.79 1106.32L2702.79 1106.32C2701.91 1108.38 2699.51 1109.34 2697.45 1108.46Z" fill="#4472C4" fill-rule="evenodd"/><path d="M2696.8 1144.72C2694.98 1148.89 2690.11 1150.79 2685.94 1148.97L2685.94 1148.97C2681.76 1147.14 2679.86 1142.27 2681.69 1138.1L2696.78 1103.64C2698.61 1099.47 2703.48 1097.57 2707.65 1099.39L2707.65 1099.39C2711.82 1101.22 2713.72 1106.09 2711.9 1110.26Z" fill="#4472C4" fill-rule="evenodd"/><path d="M2696.4 1103.32C2698.43 1098.69 2703.84 1096.57 2708.47 1098.6 2713.11 1100.63 2715.22 1106.04 2713.19 1110.67 2711.16 1115.31 2705.75 1117.42 2701.12 1115.39 2696.48 1113.36 2694.37 1107.96 2696.4 1103.32Z" stroke="#FFFFFF" stroke-width="2.29167" stroke-miterlimit="8" fill="none" fill-rule="evenodd"/><path d="M2681.68 1136.37C2683.71 1131.73 2689.11 1129.62 2693.75 1131.65 2698.39 1133.68 2700.5 1139.08 2698.47 1143.72 2696.44 1148.36 2691.03 1150.47 2686.4 1148.44 2681.76 1146.41 2679.65 1141 2681.68 1136.37Z" stroke="#FFFFFF" stroke-width="2.29167" stroke-miterlimit="8" fill="none" fill-rule="evenodd"/><path d="M2672.4 1092.83C2673.61 1090.07 2676.83 1088.82 2679.59 1090.03 2682.35 1091.24 2683.61 1094.45 2682.4 1097.21 2681.19 1099.97 2677.97 1101.23 2675.21 1100.02 2672.45 1098.81 2671.19 1095.59 2672.4 1092.83Z" stroke="#FFFFFF" stroke-width="2.29167" stroke-miterlimit="8" fill="none" fill-rule="evenodd"/><path d="M2631.5 1112C2631.5 1111.17 2632.17 1110.5 2633 1110.5 2633.83 1110.5 2634.5 1111.17 2634.5 1112 2634.5 1112.83 2633.83 1113.5 2633 1113.5 2632.17 1113.5 2631.5 1112.83 2631.5 1112Z" stroke="#FF0000" stroke-width="4.58333" stroke-miterlimit="8" fill="#FF0000" fill-rule="evenodd"/><path d="M2657.5 1107.5C2657.5 1106.95 2658.17 1106.5 2659 1106.5 2659.83 1106.5 2660.5 1106.95 2660.5 1107.5 2660.5 1108.05 2659.83 1108.5 2659 1108.5 2658.17 1108.5 2657.5 1108.05 2657.5 1107.5Z" stroke="#FF0000" stroke-width="4.58333" stroke-miterlimit="8" fill="#FF0000" fill-rule="evenodd"/><path d="M2619.5 1124.5C2619.5 1123.95 2619.95 1123.5 2620.5 1123.5 2621.05 1123.5 2621.5 1123.95 2621.5 1124.5 2621.5 1125.05 2621.05 1125.5 2620.5 1125.5 2619.95 1125.5 2619.5 1125.05 2619.5 1124.5Z" stroke="#FF0000" stroke-width="4.58333" stroke-miterlimit="8" fill="#FF0000" fill-rule="evenodd"/><path d="M2646.5 1117.5C2646.5 1116.95 2647.17 1116.5 2648 1116.5 2648.83 1116.5 2649.5 1116.95 2649.5 1117.5 2649.5 1118.05 2648.83 1118.5 2648 1118.5 2647.17 1118.5 2646.5 1118.05 2646.5 1117.5Z" stroke="#FF0000" stroke-width="4.58333" stroke-miterlimit="8" fill="#FF0000" fill-rule="evenodd"/><path d="M2671.5 1116.5C2671.5 1115.95 2672.17 1115.5 2673 1115.5 2673.83 1115.5 2674.5 1115.95 2674.5 1116.5 2674.5 1117.05 2673.83 1117.5 2673 1117.5 2672.17 1117.5 2671.5 1117.05 2671.5 1116.5Z" stroke="#FF0000" stroke-width="4.58333" stroke-miterlimit="8" fill="#FF0000" fill-rule="evenodd"/><path d="M2675.5 1128C2675.5 1127.17 2675.95 1126.5 2676.5 1126.5 2677.05 1126.5 2677.5 1127.17 2677.5 1128 2677.5 1128.83 2677.05 1129.5 2676.5 1129.5 2675.95 1129.5 2675.5 1128.83 2675.5 1128Z" stroke="#FF0000" stroke-width="4.58333" stroke-miterlimit="8" fill="#FF0000" fill-rule="evenodd"/><path d="M0 0 25.1192 7.12366" stroke="#FF0000" stroke-width="2.29167" stroke-miterlimit="8" fill="none" fill-rule="evenodd" transform="matrix(1 0 0 -1 2621 1124.12)"/><path d="M0 0 22.4046 0.941929" stroke="#FF0000" stroke-width="2.29167" stroke-miterlimit="8" fill="none" fill-rule="evenodd" transform="matrix(1 0 0 -1 2649 1116.94)"/><path d="M2650.5 1126.5C2650.5 1125.95 2650.95 1125.5 2651.5 1125.5 2652.05 1125.5 2652.5 1125.95 2652.5 1126.5 2652.5 1127.05 2652.05 1127.5 2651.5 1127.5 2650.95 1127.5 2650.5 1127.05 2650.5 1126.5Z" stroke="#FF0000" stroke-width="4.58333" stroke-miterlimit="8" fill="#FF0000" fill-rule="evenodd"/><path d="M2621 1125 2650.2 1125.98" stroke="#FF0000" stroke-width="2.29167" stroke-miterlimit="8" fill="none" fill-rule="evenodd"/><path d="M2652 1126 2674.51 1127.51" stroke="#FF0000" stroke-width="2.29167" stroke-miterlimit="8" fill="none" fill-rule="evenodd"/><path d="M2673 1117 2675.96 1126.43" stroke="#FF0000" stroke-width="2.29167" stroke-miterlimit="8" fill="none" fill-rule="evenodd"/><path d="M2633 1112 2646.42 1116.07" stroke="#FF0000" stroke-width="2.29167" stroke-miterlimit="8" fill="none" fill-rule="evenodd"/><path d="M0 0 10.6846 11.1938" stroke="#FF0000" stroke-width="2.29167" stroke-miterlimit="8" fill="none" fill-rule="evenodd" transform="matrix(1 0 0 -1 2621 1123.19)"/><path d="M2647 1118 2650.72 1124.65" stroke="#FF0000" stroke-width="2.29167" stroke-miterlimit="8" fill="none" fill-rule="evenodd"/><path d="M0 0 19.4027 8.25253" stroke="#FF0000" stroke-width="2.29167" stroke-miterlimit="8" fill="none" fill-rule="evenodd" transform="matrix(-1 0 0 1 2671.4 1117)"/><path d="M0 0 9.43228 8.27093" stroke="#FF0000" stroke-width="2.29167" stroke-miterlimit="8" fill="none" fill-rule="evenodd" transform="matrix(1 0 0 -1 2648 1116.27)"/><path d="M0 0 23.8676 4.20115" stroke="#FF0000" stroke-width="2.29167" stroke-miterlimit="8" fill="none" fill-rule="evenodd" transform="matrix(1 0 0 -1 2634 1111.2)"/><path d="M2669.5 1138C2669.5 1137.17 2670.17 1136.5 2671 1136.5 2671.83 1136.5 2672.5 1137.17 2672.5 1138 2672.5 1138.83 2671.83 1139.5 2671 1139.5 2670.17 1139.5 2669.5 1138.83 2669.5 1138Z" stroke="#FF0000" stroke-width="4.58333" stroke-miterlimit="8" fill="#FF0000" fill-rule="evenodd"/><path d="M2652 1127 2669.04 1137.81" stroke="#FF0000" stroke-width="2.29167" stroke-miterlimit="8" fill="none" fill-rule="evenodd"/><path d="M0 0 4.95541 9.76863" stroke="#FF0000" stroke-width="2.29167" stroke-miterlimit="8" fill="none" fill-rule="evenodd" transform="matrix(1 0 0 -1 2671 1138.77)"/></g></svg>