<svg width="440" height="378" xmlns="http://www.w3.org/2000/svg" xmlns:xlink="http://www.w3.org/1999/xlink" xml:space="preserve" overflow="hidden"><defs><clipPath id="clip0"><rect x="881" y="414" width="440" height="378"/></clipPath></defs><g clip-path="url(#clip0)" transform="translate(-881 -414)"><path d="M1060 439C1060 425.193 1072.54 414 1088 414 1103.46 414 1116 425.193 1116 439 1116 452.807 1103.46 464 1088 464 1072.54 464 1060 452.807 1060 439Z" fill="#4472C4" fill-rule="evenodd"/><path d="M1156 439.5C1156 425.969 1168.76 415 1184.5 415 1200.24 415 1213 425.969 1213 439.5 1213 453.031 1200.24 464 1184.5 464 1168.76 464 1156 453.031 1156 439.5Z" fill="#4472C4" fill-rule="evenodd"/><path d="M881 545.5C881 531.969 893.76 521 909.5 521 925.24 521 938 531.969 938 545.5 938 559.031 925.24 570 909.5 570 893.76 570 881 559.031 881 545.5Z" fill="#4472C4" fill-rule="evenodd"/><path d="M987 543C987 529.193 999.76 518 1015.5 518 1031.24 518 1044 529.193 1044 543 1044 556.807 1031.24 568 1015.5 568 999.76 568 987 556.807 987 543Z" fill="#4472C4" fill-rule="evenodd"/><path d="M1103 543C1103 529.193 1115.76 518 1131.5 518 1147.24 518 1160 529.193 1160 543 1160 556.807 1147.24 568 1131.5 568 1115.76 568 1103 556.807 1103 543Z" fill="#4472C4" fill-rule="evenodd"/><path d="M1221 522C1221 508.193 1233.76 497 1249.5 497 1265.24 497 1278 508.193 1278 522 1278 535.807 1265.24 547 1249.5 547 1233.76 547 1221 535.807 1221 522Z" fill="#4472C4" fill-rule="evenodd"/><path d="M1003 653C1003 639.193 1015.76 628 1031.5 628 1047.24 628 1060 639.193 1060 653 1060 666.807 1047.24 678 1031.5 678 1015.76 678 1003 666.807 1003 653Z" fill="#4472C4" fill-rule="evenodd"/><path d="M1152 628C1152 614.193 1164.76 603 1180.5 603 1196.24 603 1209 614.193 1209 628 1209 641.807 1196.24 653 1180.5 653 1164.76 653 1152 641.807 1152 628Z" fill="#4472C4" fill-rule="evenodd"/><path d="M1264 628C1264 614.193 1276.76 603 1292.5 603 1308.24 603 1321 614.193 1321 628 1321 641.807 1308.24 653 1292.5 653 1276.76 653 1264 641.807 1264 628Z" fill="#4472C4" fill-rule="evenodd"/><path d="M1114 767C1114 753.193 1126.54 742 1142 742 1157.46 742 1170 753.193 1170 767 1170 780.807 1157.46 792 1142 792 1126.54 792 1114 780.807 1114 767Z" fill="#4472C4" fill-rule="evenodd"/><path d="M910 653C910 639.193 922.536 628 938 628 953.464 628 966 639.193 966 653 966 666.807 953.464 678 938 678 922.536 678 910 666.807 910 653Z" fill="#4472C4" fill-rule="evenodd"/></g></svg>