<svg width="69" height="61" xmlns="http://www.w3.org/2000/svg" xmlns:xlink="http://www.w3.org/1999/xlink" xml:space="preserve" overflow="hidden"><defs><clipPath id="clip0"><rect x="1318" y="46" width="69" height="61"/></clipPath></defs><g clip-path="url(#clip0)" transform="translate(-1318 -46)"><path d="M1342 48.5C1342 47.1193 1342.9 46.0001 1344 46.0001 1345.1 46.0001 1346 47.1193 1346 48.5 1346 49.8806 1345.1 50.9999 1344 50.9999 1342.9 50.9999 1342 49.8806 1342 48.5Z" fill="#4472C4" fill-rule="evenodd"/><path d="M1361 48.5C1361 47.1193 1361.9 46.0001 1363 46.0001 1364.1 46.0001 1365 47.1193 1365 48.5 1365 49.8806 1364.1 50.9999 1363 50.9999 1361.9 50.9999 1361 49.8806 1361 48.5Z" fill="#4472C4" fill-rule="evenodd"/><path d="M1318 67C1318 65.8954 1318.9 65 1320 65 1321.1 65 1322 65.8954 1322 67 1322 68.1046 1321.1 69.0001 1320 69.0001 1318.9 69.0001 1318 68.1046 1318 67Z" fill="#4472C4" fill-rule="evenodd"/><path d="M1333 67C1333 65.8954 1333.9 65 1335 65 1336.1 65 1337 65.8954 1337 67 1337 68.1046 1336.1 69.0001 1335 69.0001 1333.9 69.0001 1333 68.1046 1333 67Z" fill="#4472C4" fill-rule="evenodd"/><path d="M1351 67C1351 65.8954 1352.12 65 1353.5 65 1354.88 65 1356 65.8954 1356 67 1356 68.1046 1354.88 69.0001 1353.5 69.0001 1352.12 69.0001 1351 68.1046 1351 67Z" fill="#4472C4" fill-rule="evenodd"/><path d="M1372 67C1372 65.8954 1372.9 65 1374 65 1375.1 65 1376 65.8954 1376 67 1376 68.1046 1375.1 69.0001 1374 69.0001 1372.9 69.0001 1372 68.1046 1372 67Z" fill="#4472C4" fill-rule="evenodd"/><path d="M1342 83.5C1342 82.1194 1343.12 81.0001 1344.5 81.0001 1345.88 81.0001 1347 82.1194 1347 83.5 1347 84.8807 1345.88 85.9999 1344.5 85.9999 1343.12 85.9999 1342 84.8807 1342 83.5Z" fill="#4472C4" fill-rule="evenodd"/><path d="M1361 83.5C1361 82.1194 1361.9 81.0001 1363 81.0001 1364.1 81.0001 1365 82.1194 1365 83.5 1365 84.8807 1364.1 85.9999 1363 85.9999 1361.9 85.9999 1361 84.8807 1361 83.5Z" fill="#4472C4" fill-rule="evenodd"/><path d="M1382 83.5C1382 82.1194 1383.12 81.0001 1384.5 81.0001 1385.88 81.0001 1387 82.1194 1387 83.5 1387 84.8807 1385.88 85.9999 1384.5 85.9999 1383.12 85.9999 1382 84.8807 1382 83.5Z" fill="#4472C4" fill-rule="evenodd"/><path d="M1372 105C1372 103.896 1372.9 103 1374 103 1375.1 103 1376 103.896 1376 105 1376 106.105 1375.1 107 1374 107 1372.9 107 1372 106.105 1372 105Z" fill="#4472C4" fill-rule="evenodd"/><path d="M1325 83.5C1325 82.1194 1326.12 81.0001 1327.5 81.0001 1328.88 81.0001 1330 82.1194 1330 83.5 1330 84.8807 1328.88 85.9999 1327.5 85.9999 1326.12 85.9999 1325 84.8807 1325 83.5Z" fill="#4472C4" fill-rule="evenodd"/></g></svg>