<svg width="80" height="65" xmlns="http://www.w3.org/2000/svg" xmlns:xlink="http://www.w3.org/1999/xlink" xml:space="preserve" overflow="hidden"><defs><clipPath id="clip0"><rect x="1316" y="44" width="80" height="65"/></clipPath></defs><g clip-path="url(#clip0)" transform="translate(-1316 -44)"><path d="M1343.5 50.5C1343.5 48.2908 1345.29 46.4999 1347.5 46.4999 1349.71 46.4999 1351.5 48.2908 1351.5 50.5 1351.5 52.7092 1349.71 54.5002 1347.5 54.5002 1345.29 54.5002 1343.5 52.7092 1343.5 50.5Z" stroke="#2F528F" stroke-width="4.58333" stroke-miterlimit="8" fill="#4472C4" fill-rule="evenodd"/><path d="M1362.5 50.5C1362.5 48.2908 1364.51 46.4999 1367 46.4999 1369.49 46.4999 1371.5 48.2908 1371.5 50.5 1371.5 52.7092 1369.49 54.5002 1367 54.5002 1364.51 54.5002 1362.5 52.7092 1362.5 50.5Z" stroke="#2F528F" stroke-width="4.58333" stroke-miterlimit="8" fill="#4472C4" fill-rule="evenodd"/><path d="M1318.5 67.5001C1318.5 65.2909 1320.29 63.5001 1322.5 63.5001 1324.71 63.5001 1326.5 65.2909 1326.5 67.5001 1326.5 69.7092 1324.71 71.5 1322.5 71.5 1320.29 71.5 1318.5 69.7092 1318.5 67.5001Z" stroke="#2F528F" stroke-width="4.58333" stroke-miterlimit="8" fill="#4472C4" fill-rule="evenodd"/><path d="M1334.5 67.5001C1334.5 65.2909 1336.29 63.5001 1338.5 63.5001 1340.71 63.5001 1342.5 65.2909 1342.5 67.5001 1342.5 69.7092 1340.71 71.5 1338.5 71.5 1336.29 71.5 1334.5 69.7092 1334.5 67.5001Z" stroke="#2F528F" stroke-width="4.58333" stroke-miterlimit="8" fill="#4472C4" fill-rule="evenodd"/><path d="M1352.5 67.5001C1352.5 65.2909 1354.51 63.5001 1357 63.5001 1359.49 63.5001 1361.5 65.2909 1361.5 67.5001 1361.5 69.7092 1359.49 71.5 1357 71.5 1354.51 71.5 1352.5 69.7092 1352.5 67.5001Z" stroke="#2F528F" stroke-width="4.58333" stroke-miterlimit="8" fill="#4472C4" fill-rule="evenodd"/><path d="M1374.5 67.5001C1374.5 65.2909 1376.29 63.5001 1378.5 63.5001 1380.71 63.5001 1382.5 65.2909 1382.5 67.5001 1382.5 69.7092 1380.71 71.5 1378.5 71.5 1376.29 71.5 1374.5 69.7092 1374.5 67.5001Z" stroke="#2F528F" stroke-width="4.58333" stroke-miterlimit="8" fill="#4472C4" fill-rule="evenodd"/><path d="M1343.5 83C1343.5 81.067 1345.29 79.4999 1347.5 79.4999 1349.71 79.4999 1351.5 81.067 1351.5 83 1351.5 84.9331 1349.71 86.5001 1347.5 86.5001 1345.29 86.5001 1343.5 84.9331 1343.5 83Z" stroke="#2F528F" stroke-width="4.58333" stroke-miterlimit="8" fill="#4472C4" fill-rule="evenodd"/><path d="M1362.5 83C1362.5 81.067 1364.51 79.4999 1367 79.4999 1369.49 79.4999 1371.5 81.067 1371.5 83 1371.5 84.9331 1369.49 86.5001 1367 86.5001 1364.51 86.5001 1362.5 84.9331 1362.5 83Z" stroke="#2F528F" stroke-width="4.58333" stroke-miterlimit="8" fill="#4472C4" fill-rule="evenodd"/><path d="M1385.5 83C1385.5 81.067 1387.29 79.4999 1389.5 79.4999 1391.71 79.4999 1393.5 81.067 1393.5 83 1393.5 84.9331 1391.71 86.5001 1389.5 86.5001 1387.29 86.5001 1385.5 84.9331 1385.5 83Z" stroke="#2F528F" stroke-width="4.58333" stroke-miterlimit="8" fill="#4472C4" fill-rule="evenodd"/><path d="M1374.5 102.5C1374.5 100.291 1376.29 98.5002 1378.5 98.5002 1380.71 98.5002 1382.5 100.291 1382.5 102.5 1382.5 104.709 1380.71 106.5 1378.5 106.5 1376.29 106.5 1374.5 104.709 1374.5 102.5Z" stroke="#2F528F" stroke-width="4.58333" stroke-miterlimit="8" fill="#4472C4" fill-rule="evenodd"/><path d="M1326.5 83C1326.5 81.067 1328.29 79.4999 1330.5 79.4999 1332.71 79.4999 1334.5 81.067 1334.5 83 1334.5 84.9331 1332.71 86.5001 1330.5 86.5001 1328.29 86.5001 1326.5 84.9331 1326.5 83Z" stroke="#2F528F" stroke-width="4.58333" stroke-miterlimit="8" fill="#4472C4" fill-rule="evenodd"/></g></svg>